<svg id="Out_line" data-name="Out line" xmlns="http://www.w3.org/2000/svg" width="88" height="88" viewBox="0 0 88 88">
  <path id="Path_182" data-name="Path 182" d="M104,38A13.214,13.214,0,0,0,88.219,25.051a14.671,14.671,0,0,0-22.344-6.126,14.82,14.82,0,0,0-4.7,6,5.846,5.846,0,0,0-7.039,5.744c0,.035,0,.071,0,.106a10.259,10.259,0,0,0-8.7,11.627H30.667V36.533A2.937,2.937,0,0,1,33.6,33.6h5.867v1.467a1.467,1.467,0,0,0,2.5,1.037l5.867-5.867a1.467,1.467,0,0,0,0-2.074L41.97,22.3a1.467,1.467,0,0,0-2.5,1.037V24.8H33.6A11.747,11.747,0,0,0,21.867,36.533v6.014A7.346,7.346,0,0,0,16,49.733V96.666A7.342,7.342,0,0,0,23.333,104h26.4a7.342,7.342,0,0,0,7.333-7.333v-4.4H73.2A1.467,1.467,0,0,0,74.667,90.8V61.466a7.342,7.342,0,0,0-7.333-7.333H57.067V51.2H86.4V65.866a2.935,2.935,0,0,1-1.467,2.54V67.333a1.467,1.467,0,0,0-2.5-1.037l-5.867,5.867a1.467,1.467,0,0,0,0,2.074L82.43,80.1a1.467,1.467,0,0,0,2.5-1.037V77.508A11.751,11.751,0,0,0,95.2,65.866V50.448A13.2,13.2,0,0,0,104,38ZM33.6,27.733h7.333a1.467,1.467,0,0,0,1.374-.952L44.726,29.2l-2.419,2.419a1.467,1.467,0,0,0-1.374-.952H33.6a5.873,5.873,0,0,0-5.867,5.867V42.4H24.8V36.533A8.81,8.81,0,0,1,33.6,27.733ZM54.133,96.666a4.4,4.4,0,0,1-4.4,4.4h-26.4a4.4,4.4,0,0,1-4.4-4.4V49.733a4.4,4.4,0,0,1,4.4-4.4h26.4a4.4,4.4,0,0,1,4.4,4.4V54.28a7.269,7.269,0,0,0-1.467.467V49.733A2.937,2.937,0,0,0,49.733,46.8H39.467A1.467,1.467,0,0,0,38,48.266a1.467,1.467,0,0,1-2.933,0A1.467,1.467,0,0,0,33.6,46.8H23.333A2.937,2.937,0,0,0,20.4,49.733V96.666A2.937,2.937,0,0,0,23.333,99.6h26.4a2.937,2.937,0,0,0,2.933-2.933v-4.4h1.467Zm-2.681-7.333A4.407,4.407,0,0,1,55.6,86.4H67.333a4.407,4.407,0,0,1,4.148,2.933Zm-3.186-4.4a7.3,7.3,0,0,0-4.4-1.471H32.133a7.3,7.3,0,0,0-4.4,1.471V61.466a4.405,4.405,0,0,1,4.4-4.4H43.867a4.405,4.405,0,0,1,4.4,4.4Zm-.252,4.4H27.986A4.407,4.407,0,0,1,32.133,86.4H43.867A4.407,4.407,0,0,1,48.014,89.333Zm-4.148-35.2H32.133A7.342,7.342,0,0,0,24.8,61.466V90.8a1.467,1.467,0,0,0,1.467,1.467H49.733v4.4h-26.4V49.733h9.051a4.4,4.4,0,0,0,8.3,0h9.051v7.333h0l0,.005A7.327,7.327,0,0,0,43.867,54.133Zm27.867,7.333V84.937a7.3,7.3,0,0,0-4.4-1.471H55.6a7.3,7.3,0,0,0-4.4,1.471V61.466a4.405,4.405,0,0,1,4.4-4.4H67.333A4.405,4.405,0,0,1,71.733,61.466ZM95.2,47.278V43.866H92.267v22a8.81,8.81,0,0,1-8.8,8.8,1.467,1.467,0,0,0-1.374.952L79.674,73.2l2.419-2.419a1.467,1.467,0,0,0,1.374.952,5.873,5.873,0,0,0,5.867-5.867v-22H86.4v4.4H56.919A7.346,7.346,0,0,0,49.733,42.4H48.414a7.335,7.335,0,0,1,13.539-5.132L64.492,35.8a10.312,10.312,0,0,0-7.421-5.024c0-.036,0-.072,0-.108a2.934,2.934,0,0,1,5.7-.978l2.766-.977a5.848,5.848,0,0,0-1.723-2.5,11.739,11.739,0,0,1,21.6-.267A13.193,13.193,0,0,0,80.5,29.749l2.289,1.835A10.268,10.268,0,1,1,95.2,47.278Z" transform="translate(-16 -15.999)" fill="#fff"/>
  <path id="Path_183" data-name="Path 183" d="M112,256h6.507v3.253H112Z" transform="translate(-92.48 -207.2)" fill="#fff"/>
  <path id="Path_184" data-name="Path 184" d="M160,256h3.253v3.253H160Z" transform="translate(-130.72 -207.2)" fill="#fff"/>
  <path id="Path_185" data-name="Path 185" d="M96,288h6.507v3.253H96Z" transform="translate(-79.733 -232.693)" fill="#fff"/>
  <path id="Path_186" data-name="Path 186" d="M144,288h6.507v3.253H144Z" transform="translate(-117.973 -232.693)" fill="#fff"/>
  <path id="Path_187" data-name="Path 187" d="M96,320h9.76v3.253H96Z" transform="translate(-79.733 -258.186)" fill="#fff"/>
  <path id="Path_188" data-name="Path 188" d="M160,320h3.253v3.253H160Z" transform="translate(-130.72 -258.186)" fill="#fff"/>
  <path id="Path_189" data-name="Path 189" d="M96,352h13.013v3.253H96Z" transform="translate(-79.733 -283.679)" fill="#fff"/>
  <path id="Path_190" data-name="Path 190" d="M256,352h6.507v3.253H256Z" transform="translate(-207.2 -283.679)" fill="#fff"/>
  <path id="Path_191" data-name="Path 191" d="M224,352h3.253v3.253H224Z" transform="translate(-181.706 -283.679)" fill="#fff"/>
  <path id="Path_192" data-name="Path 192" d="M272,320h6.507v3.253H272Z" transform="translate(-219.946 -258.186)" fill="#fff"/>
  <path id="Path_193" data-name="Path 193" d="M224,320h6.507v3.253H224Z" transform="translate(-181.706 -258.186)" fill="#fff"/>
  <path id="Path_194" data-name="Path 194" d="M256,288h9.76v3.253H256Z" transform="translate(-207.2 -232.693)" fill="#fff"/>
  <path id="Path_195" data-name="Path 195" d="M224,288h3.253v3.253H224Z" transform="translate(-181.706 -232.693)" fill="#fff"/>
  <path id="Path_196" data-name="Path 196" d="M240,256h6.507v3.253H240Z" transform="translate(-194.453 -207.2)" fill="#fff"/>
  <path id="Path_197" data-name="Path 197" d="M288,256h3.253v3.253H288Z" transform="translate(-232.693 -207.2)" fill="#fff"/>
</svg>
