<svg xmlns="http://www.w3.org/2000/svg" width="54.774" height="88" viewBox="0 0 54.774 88">
  <g id="Group_452" data-name="Group 452" transform="translate(-933 -269)">
    <g id="smartphone" transform="translate(834.897 268)">
      <path id="Path_221" data-name="Path 221" d="M211.706,27.031a1.3,1.3,0,0,0,1.3,1.3h8.711a1.3,1.3,0,1,0,0-2.6h-8.711A1.3,1.3,0,0,0,211.706,27.031Z" transform="translate(-93.899 -21.267)" fill="#fff"/>
      <path id="Path_222" data-name="Path 222" d="M229.253,445.895a4,4,0,1,0-4,4A4.005,4.005,0,0,0,229.253,445.895Zm-5.4,0a1.4,1.4,0,1,1,1.4,1.4A1.4,1.4,0,0,1,223.854,445.895Z" transform="translate(-101.789 -366.054)" fill="#fff"/>
      <path id="Path_223" data-name="Path 223" d="M271.969,89.024h16.393a1.3,1.3,0,1,0,0-2.6H271.969a1.3,1.3,0,0,0,0,2.6Z" transform="translate(-142.634 -69.986)" fill="#fff"/>
      <path id="Path_224" data-name="Path 224" d="M271.969,118.624h16.393a1.3,1.3,0,1,0,0-2.6H271.969a1.3,1.3,0,0,0,0,2.6Z" transform="translate(-142.634 -96.077)" fill="#fff"/>
      <path id="Path_225" data-name="Path 225" d="M289.663,146.924a1.3,1.3,0,0,0-1.3-1.3H271.969a1.3,1.3,0,0,0,0,2.6h16.393A1.3,1.3,0,0,0,289.663,146.924Z" transform="translate(-142.634 -120.592)" fill="#fff"/>
      <path id="Path_226" data-name="Path 226" d="M120.542,0H105.317A7.19,7.19,0,0,0,98.1,7.149v73.7A7.19,7.19,0,0,0,105.317,88H141.61a7.19,7.19,0,0,0,7.214-7.149v-47.4a4.894,4.894,0,0,0,4.053-4.8v-14.9a4.893,4.893,0,0,0-4.053-4.8V7.149A7.19,7.19,0,0,0,141.61,0h-15a1.289,1.289,0,1,0,0,2.578h15a4.6,4.6,0,0,1,4.612,4.57V8.885H105.317a1.82,1.82,0,0,0-1.826,1.809V73a1.82,1.82,0,0,0,1.826,1.81H141.61A1.82,1.82,0,0,0,143.436,73V55.54a1.3,1.3,0,0,0-2.6,0v16.69H106.093V18.153h16.184v10.5c0,.126.006.25.016.373A14.228,14.228,0,1,0,137.817,43.2a14.068,14.068,0,0,0-3.826-9.672h6.171c-.142.258-.042.093-2.1,3.3a1.883,1.883,0,0,0,.169,2.274,1.933,1.933,0,0,0,2.247.491l.357-.159V49.524a1.3,1.3,0,0,0,2.6,0V38.24a10.9,10.9,0,0,0,2.786-2.134V80.852a4.6,4.6,0,0,1-4.612,4.571H105.317a4.6,4.6,0,0,1-4.612-4.571V7.149a4.6,4.6,0,0,1,4.612-4.57h15.225a1.289,1.289,0,1,0,0-2.578ZM110.256,15.575h-4.164V11.463h4.164Zm12.021-1.817v1.816h-9.419V11.463h10a4.87,4.87,0,0,0-.58,2.3Zm8.231,38.757a11.813,11.813,0,0,1-14.089,0V49.481a2.866,2.866,0,0,1,2.875-2.849h8.338a2.866,2.866,0,0,1,2.875,2.849Zm-10.516-11.9a3.472,3.472,0,1,1,3.472,3.44A3.46,3.46,0,0,1,119.992,40.614ZM135.215,43.2a11.5,11.5,0,0,1-2.106,6.64v-.36a5.451,5.451,0,0,0-4.706-5.373,5.947,5.947,0,0,0,1.134-3.495,6.074,6.074,0,0,0-12.147,0,5.947,5.947,0,0,0,1.134,3.495,5.451,5.451,0,0,0-4.706,5.373v.36a11.505,11.505,0,0,1-2.106-6.64,11.71,11.71,0,0,1,11.535-11.643,4.942,4.942,0,0,0,3.948,1.971h2.811a11.558,11.558,0,0,1,5.21,9.672ZM145.7,32.351a8.259,8.259,0,0,1-4.233,3.973,13.307,13.307,0,0,0,1.537-2.775,1.926,1.926,0,0,0-1.814-2.6h-14a2.324,2.324,0,0,1-2.316-2.3v-14.9a2.309,2.309,0,0,1,2.316-2.3h20.764a2.309,2.309,0,0,1,2.316,2.3v14.9a2.309,2.309,0,0,1-2.316,2.3A2.534,2.534,0,0,0,145.7,32.351Z" transform="translate(0 1)" fill="#fff"/>
    </g>
  </g>
</svg>
