<svg id="website" xmlns="http://www.w3.org/2000/svg" width="50.369" height="50.123" viewBox="0 0 97.369 97.123">
  <g id="Group_2" data-name="Group 2" transform="translate(0 0)">
    <g id="Group_1" data-name="Group 1">
      <path id="Path_1" data-name="Path 1" d="M90.876,8.533H6.493A6.5,6.5,0,0,0,0,15.026V68.577A1.623,1.623,0,0,0,1.623,70.2H95.746a1.623,1.623,0,0,0,1.623-1.623V15.026A6.5,6.5,0,0,0,90.876,8.533Zm3.247,58.421H3.246V15.026a3.251,3.251,0,0,1,3.247-3.247H90.876a3.251,3.251,0,0,1,3.247,3.247Z" transform="translate(0 -8.533)" fill="#fff"/>
    </g>
  </g>
  <g id="Group_4" data-name="Group 4" transform="translate(0 58.421)">
    <g id="Group_3" data-name="Group 3">
      <path id="Path_2" data-name="Path 2" d="M95.746,315.733H1.623A1.623,1.623,0,0,0,0,317.356v8.112a6.5,6.5,0,0,0,6.493,6.493H90.876a6.5,6.5,0,0,0,6.493-6.493v-8.112A1.623,1.623,0,0,0,95.746,315.733Zm-1.623,9.735a3.251,3.251,0,0,1-3.247,3.247H6.493a3.251,3.251,0,0,1-3.247-3.247v-6.49H94.123v6.49Z" transform="translate(0 -315.733)" fill="#fff"/>
    </g>
  </g>
  <g id="Group_6" data-name="Group 6" transform="translate(42.193 64.912)">
    <g id="Group_5" data-name="Group 5">
      <path id="Path_3" data-name="Path 3" d="M233.227,349.867H223.49a1.623,1.623,0,1,0,0,3.245h9.737a1.623,1.623,0,0,0,0-3.245Z" transform="translate(-221.867 -349.867)" fill="#fff"/>
    </g>
  </g>
  <g id="Group_8" data-name="Group 8" transform="translate(6.491 6.491)">
    <g id="Group_7" data-name="Group 7">
      <path id="Path_4" data-name="Path 4" d="M116.9,42.667H35.757a1.623,1.623,0,0,0-1.623,1.623V96.22a1.623,1.623,0,0,0,1.623,1.623H116.9a1.623,1.623,0,0,0,1.623-1.623V44.29A1.623,1.623,0,0,0,116.9,42.667ZM115.274,94.6H37.379V45.912h77.895Z" transform="translate(-34.134 -42.667)" fill="#fff"/>
    </g>
  </g>
  <g id="Group_10" data-name="Group 10" transform="translate(22.719 84.386)">
    <g id="Group_9" data-name="Group 9">
      <path id="Path_5" data-name="Path 5" d="M166.528,452.267H124.335a4.868,4.868,0,0,0,0,9.737h42.193a4.868,4.868,0,1,0,0-9.737Zm0,6.491H124.335a1.623,1.623,0,0,1,0-3.245h42.193a1.623,1.623,0,1,1,0,3.245Z" transform="translate(-119.467 -452.267)" fill="#fff"/>
    </g>
  </g>
  <g id="Group_12" data-name="Group 12" transform="translate(29.211 71.404)">
    <g id="Group_11" data-name="Group 11">
      <path id="Path_6" data-name="Path 6" d="M190.925,396.983c-5.385,0-8.114-3.822-8.114-11.36A1.623,1.623,0,0,0,181.189,384H164.961a1.623,1.623,0,0,0-1.623,1.623c0,7.538-2.73,11.36-8.114,11.36a1.623,1.623,0,0,0,0,3.246h35.7a1.623,1.623,0,0,0,0-3.246Zm-27.8,0c2-2.213,3.174-5.509,3.411-9.737h13.072c.235,4.227,1.412,7.523,3.411,9.737Z" transform="translate(-153.601 -384.001)" fill="#fff"/>
    </g>
  </g>
  <g id="Group_14" data-name="Group 14" transform="translate(56.809 34.079)">
    <g id="Group_13" data-name="Group 13">
      <path id="Path_7" data-name="Path 7" d="M319.459,201.467l-3.917-3.917,2.179-2.179a1.622,1.622,0,0,0-.68-2.7L300.813,187.8a1.623,1.623,0,0,0-2.02,2.02l4.868,16.228a1.622,1.622,0,0,0,2.7.682l2.295-2.3,3.917,3.919a1.622,1.622,0,0,0,2.295,0l4.589-4.591A1.621,1.621,0,0,0,319.459,201.467Zm-5.737,3.444-3.567-3.569a2.121,2.121,0,0,0-3,0l-1.172,1.172-3.221-10.738L313.5,195l-1.256,1.256a1.839,1.839,0,0,0,0,2.6l3.765,3.765Z" transform="translate(-298.723 -187.731)" fill="#fff"/>
    </g>
  </g>
  <g id="Group_16" data-name="Group 16" transform="translate(21.097 12.983)">
    <g id="Group_15" data-name="Group 15">
      <path id="Path_8" data-name="Path 8" d="M158,76.8H112.557a1.623,1.623,0,0,0-1.623,1.623v8.114a1.623,1.623,0,0,0,1.623,1.623H158a1.623,1.623,0,0,0,1.623-1.623V78.423A1.623,1.623,0,0,0,158,76.8Zm-1.623,8.114H114.179V80.046h42.193Z" transform="translate(-110.934 -76.8)" fill="#fff"/>
    </g>
  </g>
  <g id="Group_18" data-name="Group 18" transform="translate(27.588 30.833)">
    <g id="Group_17" data-name="Group 17">
      <path id="Path_9" data-name="Path 9" d="M159.672,170.667H146.69a1.623,1.623,0,0,0-1.623,1.623v6.491a1.623,1.623,0,0,0,1.623,1.623h12.983a1.623,1.623,0,0,0,1.623-1.623V172.29A1.623,1.623,0,0,0,159.672,170.667Zm-1.623,6.491h-9.737v-3.246h9.737Z" transform="translate(-145.067 -170.667)" fill="#fff"/>
    </g>
  </g>
  <g id="Group_20" data-name="Group 20" transform="translate(21.097 12.983)">
    <g id="Group_19" data-name="Group 19">
      <path id="Path_10" data-name="Path 10" d="M158,76.8H112.557a1.623,1.623,0,0,0-1.623,1.623v30.833a1.623,1.623,0,0,0,1.623,1.623h38.633a1.624,1.624,0,0,0,1.555-2.09l-2.054-6.85,6.84,2.053a1.623,1.623,0,0,0,2.088-1.555V78.423A1.624,1.624,0,0,0,158,76.8Zm-1.623,23.456-7.639-2.291a1.624,1.624,0,0,0-2.02,2.022l2.295,7.647H114.179V80.046h42.193Z" transform="translate(-110.934 -76.8)" fill="#fff"/>
    </g>
  </g>
</svg>
