<svg xmlns="http://www.w3.org/2000/svg" width="297.159" height="194.614" viewBox="0 0 297.159 194.614">
  <g id="QA_engineers-pana" data-name="QA engineers-pana" transform="translate(-37.83 -42.83)">
    <g id="freepik--background-complete--inject-5" transform="translate(60.307 78.881)">
      <path id="Path_562" data-name="Path 562" d="M101.837,193.062h-1.5l-3.268-4.555v-2.988s-2.315-.14-2.039,3.772-.026,2.918-.026,2.918-4.913,0-5.32.438c-.3.311-.438,5.189-.481,7.836a2.866,2.866,0,0,0,2.03,2.888,2.188,2.188,0,0,0,.529.07c1.225,0,7.486-1,7.486-1h2.586Z" transform="translate(-89.201 -159.138)" fill="#ebebeb"/>
      <path id="Path_563" data-name="Path 563" d="M123.4,200.88l-.923,10.243H119.91V201.09Z" transform="translate(-106.474 -167.779)" fill="#ebebeb"/>
      <path id="Path_564" data-name="Path 564" d="M640.909,134.586a15.775,15.775,0,0,0-.35-2.236,8.989,8.989,0,0,0-1.033-2.428,9.109,9.109,0,0,0-10.938-3.863,8.552,8.552,0,0,0-2.3,1.238,8.447,8.447,0,0,0-1.916,1.93,9.081,9.081,0,0,0,4.214,13.892,9.136,9.136,0,0,0,10.938-3.863,8.99,8.99,0,0,0,1.033-2.428,15.764,15.764,0,0,0,.35-2.24.6.6,0,0,1,0,.153v.438a4.144,4.144,0,0,1-.057.718,6.142,6.142,0,0,1-.171.963,8.718,8.718,0,0,1-1,2.49,9.145,9.145,0,0,1-2.35,2.669,9.28,9.28,0,0,1-3.938,1.772,9.39,9.39,0,0,1-4.922-.389,9.4,9.4,0,0,1-4.367-3.26,9.351,9.351,0,1,1,15.572-10.308,8.719,8.719,0,0,1,1,2.49,6.171,6.171,0,0,1,.171.963,4.118,4.118,0,0,1,.057.713c0,.179,0,.324,0,.438A.541.541,0,0,1,640.909,134.586Z" transform="translate(-389.035 -125.225)" fill="#e0e0e0"/>
      <path id="Path_565" data-name="Path 565" d="M674.687,169.407c-.048.074-3.317-2.03-7.294-4.7s-7.162-4.9-7.114-4.97,3.317,2.03,7.294,4.7S674.735,169.333,674.687,169.407Z" transform="translate(-410.414 -144.636)" fill="#e0e0e0"/>
      <rect id="Rectangle_16" data-name="Rectangle 16" width="37.339" height="48.142" transform="translate(25.083 105.29)" fill="#ebebeb"/>
      <rect id="Rectangle_17" data-name="Rectangle 17" width="37.339" height="48.142" transform="translate(12.797 105.29)" fill="#f5f5f5"/>
      <path id="Path_566" data-name="Path 566" d="M131.342,373.827V371.74H127.82v2.087a1.75,1.75,0,0,0,1.536,1.75v1.816h-.783c-.271,0-.5.162-.5.354h3.015c0-.193-.228-.354-.5-.354h-.783v-1.816A1.75,1.75,0,0,0,131.342,373.827Z" transform="translate(-110.923 -263.882)" fill="#e0e0e0" fill-rule="evenodd"/>
      <path id="Path_567" data-name="Path 567" d="M144.91,373.687a2.568,2.568,0,0,0-2.485-1.947h0a2.568,2.568,0,0,0-2.485,1.947h2.249v3.277a.5.5,0,0,1-.993,0h-.481a.976.976,0,1,0,1.951,0v-3.277Z" transform="translate(-117.74 -263.882)" fill="#e0e0e0" fill-rule="evenodd"/>
      <path id="Path_568" data-name="Path 568" d="M167.728,418.374c0,.066-11.205.114-25.027.114s-25.031-.048-25.031-.114,11.205-.114,25.031-.114S167.728,418.312,167.728,418.374Z" transform="translate(-105.214 -290.048)" fill="#e0e0e0"/>
      <path id="Path_569" data-name="Path 569" d="M160.974,414.124c-.061,0-.114-10.833-.114-24.2s.052-24.2.114-24.2.114,10.833.114,24.2S161.035,414.124,160.974,414.124Z" transform="translate(-129.507 -260.496)" fill="#e0e0e0"/>
      <rect id="Rectangle_18" data-name="Rectangle 18" width="37.339" height="48.142" transform="translate(210.365 81.532)" fill="#ebebeb"/>
      <rect id="Rectangle_19" data-name="Rectangle 19" width="37.339" height="48.142" transform="translate(198.084 81.532)" fill="#f5f5f5"/>
      <path id="Path_570" data-name="Path 570" d="M554.816,319.521V317.43H551.29v2.091a1.75,1.75,0,0,0,1.54,1.75v1.82h-.792c-.276,0-.5.157-.5.35h3.01c0-.193-.223-.35-.5-.35h-.783v-1.825A1.75,1.75,0,0,0,554.816,319.521Z" transform="translate(-349.111 -233.334)" fill="#e0e0e0" fill-rule="evenodd"/>
      <path id="Path_571" data-name="Path 571" d="M568.386,319.381a2.568,2.568,0,0,0-2.481-1.951h0a2.568,2.568,0,0,0-2.485,1.951h2.245v3.277a.5.5,0,0,1-.993,0h-.477a.976.976,0,0,0,1.951,0v-3.277Z" transform="translate(-355.934 -233.334)" fill="#e0e0e0" fill-rule="evenodd"/>
      <path id="Path_572" data-name="Path 572" d="M591.208,364.074c0,.061-11.21.114-25.027.114s-25.031-.052-25.031-.114,11.205-.114,25.031-.114S591.208,364.012,591.208,364.074Z" transform="translate(-343.408 -259.506)" fill="#e0e0e0"/>
      <path id="Path_573" data-name="Path 573" d="M584.454,359.819c-.066,0-.114-10.838-.114-24.2s.048-24.209.114-24.209.114,10.838.114,24.209S584.515,359.819,584.454,359.819Z" transform="translate(-367.701 -229.948)" fill="#e0e0e0"/>
      <rect id="Rectangle_20" data-name="Rectangle 20" width="31.367" height="31.367" transform="translate(173.324 98.141)" fill="#ebebeb"/>
      <rect id="Rectangle_21" data-name="Rectangle 21" width="31.367" height="31.367" transform="translate(160.902 98.141)" fill="#f5f5f5"/>
      <path id="Path_574" data-name="Path 574" d="M469,358h.893l-.766-1.409-.77-1.413-.77,1.413-.77,1.409h.9v3.548h-2.2V358h.9l-.77-1.409-.77-1.413-.77,1.413L463.33,358h.893v3.548H463.7v.49h5.815v-.49H469Z" transform="translate(-299.636 -254.567)" fill="#e0e0e0" fill-rule="evenodd"/>
      <path id="Path_575" data-name="Path 575" d="M493.438,381.152c-.066,0-.118-6.957-.118-15.541s.052-15.541.118-15.541.114,6.957.114,15.541S493.5,381.152,493.438,381.152Z" transform="translate(-316.505 -251.693)" fill="#e0e0e0"/>
      <path id="Path_576" data-name="Path 576" d="M500.659,385.122c0,.061-9.932.114-22.187.114s-22.192-.052-22.192-.114,9.941-.122,22.192-.122S500.659,385.057,500.659,385.122Z" transform="translate(-295.671 -271.34)" fill="#e0e0e0"/>
      <path id="Path_577" data-name="Path 577" d="M434.337,445.471H248.465a12.225,12.225,0,0,1-12.225-12.22h0A12.225,12.225,0,0,1,248.465,421H434.337a12.225,12.225,0,0,1,12.251,12.251h0A12.251,12.251,0,0,1,434.337,445.471Z" transform="translate(-171.906 -291.589)" fill="#e0e0e0" fill-rule="evenodd"/>
      <path id="Path_578" data-name="Path 578" d="M442.393,447.012H255.471a6.931,6.931,0,0,1-6.931-6.922h0a6.931,6.931,0,0,1,6.931-6.93H442.393a6.93,6.93,0,0,1,6.93,6.93h0A6.93,6.93,0,0,1,442.393,447.012Z" transform="translate(-178.824 -298.428)" fill="#ebebeb" fill-rule="evenodd"/>
      <path id="Path_579" data-name="Path 579" d="M264.626,441.607a10.939,10.939,0,0,0-.223-1.378,5.658,5.658,0,0,0-2.074-3.063,5.588,5.588,0,0,0-2.358-1.037,5.688,5.688,0,0,0-2.936.249,5.167,5.167,0,0,0-1.413.766,5.219,5.219,0,0,0-1.177,1.186,5.552,5.552,0,0,0,0,6.594,5.312,5.312,0,0,0,1.177,1.186,5.156,5.156,0,0,0,1.413.761,5.592,5.592,0,0,0,2.936.249,5.482,5.482,0,0,0,2.358-1.037,5.658,5.658,0,0,0,2.074-3.063,10.8,10.8,0,0,0,.223-1.378,2.11,2.11,0,0,1,0,.363,2.442,2.442,0,0,1-.035.438,3.9,3.9,0,0,1-.105.6,5.653,5.653,0,0,1-2.061,3.185,5.723,5.723,0,0,1-2.424,1.1,5.819,5.819,0,0,1-3.063-.241,5.546,5.546,0,0,1-1.47-.783,5.442,5.442,0,0,1-1.225-1.229,5.758,5.758,0,0,1,0-6.861,5.356,5.356,0,0,1,1.229-1.225,5.473,5.473,0,0,1,1.466-.788,5.8,5.8,0,0,1,3.041-.236,5.732,5.732,0,0,1,4.489,4.279,3.987,3.987,0,0,1,.105.6,2.493,2.493,0,0,1,.035.438A2.079,2.079,0,0,1,264.626,441.607Z" transform="translate(-181.394 -299.944)" fill="#e0e0e0"/>
      <circle id="Ellipse_2" data-name="Ellipse 2" cx="2.056" cy="2.056" r="2.056" transform="translate(75.483 139.597)" fill="#e0e0e0"/>
      <path id="Path_580" data-name="Path 580" d="M688.636,441.569a10.957,10.957,0,0,0-.223-1.378,5.627,5.627,0,0,0-7.372-3.872,5.2,5.2,0,0,0-1.409.766,5.152,5.152,0,0,0-1.181,1.186,5.57,5.57,0,0,0,0,6.594,5.6,5.6,0,0,0,5.526,2.2,5.527,5.527,0,0,0,2.363-1.037,5.688,5.688,0,0,0,2.074-3.063,10.78,10.78,0,0,0,.223-1.378,4.447,4.447,0,0,1-.031.8,3.9,3.9,0,0,1-.105.6,5.752,5.752,0,0,1-7.552,4.034,5.482,5.482,0,0,1-1.47-.783A5.373,5.373,0,0,1,678.249,445a5.775,5.775,0,0,1,0-6.861,5.789,5.789,0,0,1,5.762-2.249,5.732,5.732,0,0,1,4.489,4.279,3.98,3.98,0,0,1,.105.6,3,3,0,0,1,.035.438,2.838,2.838,0,0,1,0,.363Z" transform="translate(-419.886 -299.907)" fill="#e0e0e0"/>
      <circle id="Ellipse_3" data-name="Ellipse 3" cx="2.056" cy="2.056" r="2.056" transform="translate(261.001 139.597)" fill="#e0e0e0"/>
      <path id="Path_581" data-name="Path 581" d="M452.463,435.694c0,.066-41.653.118-93.015.118s-93.028-.052-93.028-.118,41.644-.114,93.028-.114S452.463,435.632,452.463,435.694Z" transform="translate(-188.881 -299.79)" fill="#e0e0e0"/>
      <path id="Path_582" data-name="Path 582" d="M453.459,461.854c0,.061-41.478.114-92.63.114s-92.639-.052-92.639-.114,41.469-.114,92.639-.114S453.459,461.784,453.459,461.854Z" transform="translate(-189.877 -314.504)" fill="#e0e0e0"/>
    </g>
    <g id="freepik--Floor--inject-5" transform="translate(37.83 232.877)">
      <path id="Path_583" data-name="Path 583" d="M332.876,477.3c0,.061-66.067.114-147.514.114S37.83,477.365,37.83,477.3s66.041-.114,147.532-.114S332.876,477.238,332.876,477.3Z" transform="translate(-37.83 -477.19)" fill="#263238"/>
    </g>
    <g id="freepik--List--inject-5" transform="translate(92.014 42.83)">
      <rect id="Rectangle_22" data-name="Rectangle 22" width="89.349" height="123.712" rx="6.36" transform="translate(0 10.838)" fill="#ff725e"/>
      <g id="Group_19" data-name="Group 19" transform="translate(0 10.838)" opacity="0.3">
        <rect id="Rectangle_23" data-name="Rectangle 23" width="89.349" height="123.712" rx="6.36"/>
      </g>
      <rect id="Rectangle_24" data-name="Rectangle 24" width="76.809" height="112.765" transform="translate(6.27 17.453)" fill="#e0e0e0"/>
      <rect id="Rectangle_25" data-name="Rectangle 25" width="76.809" height="110.613" transform="translate(5.211 16.552)" fill="#ebebeb"/>
      <path id="Path_584" data-name="Path 584" d="M250.264,191.122c0-.923-.044-45.346-.105-110.608l.105.1h-76.8l.114-.114c0,41.535,0,79.907-.022,110.608l-.092-.092,76.813.092-76.813.092h-.092v-.092c0-30.7,0-69.073-.022-110.608v-.1h77.028V80.5C250.3,145.776,250.264,190.2,250.264,191.122Z" transform="translate(-168.24 -63.962)" fill="#263238"/>
      <path id="Path_585" data-name="Path 585" d="M286.86,307.783s19.737-7.512,27.066-19.973a20.507,20.507,0,0,1-15.773,3.282S292.929,305.036,286.86,307.783Z" transform="translate(-232.085 -180.623)" fill="#e0e0e0"/>
      <path id="Path_586" data-name="Path 586" d="M286.854,307.182l.328-.184a8.846,8.846,0,0,0,.945-.6,15.825,15.825,0,0,0,2.953-2.958,53.29,53.29,0,0,0,6.97-12.986l.035-.083h.083a20.175,20.175,0,0,0,7.145.144c.626-.079,1.238-.245,1.868-.376a12.943,12.943,0,0,0,1.855-.569,20.869,20.869,0,0,0,3.61-1.676,12.748,12.748,0,0,0,1.2-.792l.473-.363-.306.508a31.064,31.064,0,0,1-4.24,5.491,46.736,46.736,0,0,1-4.813,4.288,68.788,68.788,0,0,1-9.1,5.924c-2.7,1.483-4.966,2.533-6.537,3.22-.788.346-1.409.6-1.829.757l-.477.184a.948.948,0,0,1-.171.052,1.351,1.351,0,0,1,.162-.074l.473-.2c.411-.179,1.024-.437,1.807-.8,1.558-.713,3.807-1.785,6.5-3.282a70,70,0,0,0,9.066-5.929,45.969,45.969,0,0,0,4.773-4.279,31.126,31.126,0,0,0,4.209-5.452l.166.144a14.165,14.165,0,0,1-1.225.814,21.273,21.273,0,0,1-3.649,1.689c-.621.232-1.256.4-1.881.578a12.341,12.341,0,0,1-1.89.376,20.349,20.349,0,0,1-7.215-.162l.114-.066a52.619,52.619,0,0,1-7.066,12.99,15.168,15.168,0,0,1-3.015,2.936A7.094,7.094,0,0,1,286.854,307.182Z" transform="translate(-232.08 -180.021)" fill="#263238"/>
      <rect id="Rectangle_26" data-name="Rectangle 26" width="9.389" height="9.389" rx="3.42" transform="translate(14.198 46.694)" fill="#ff725e"/>
      <path id="Path_587" data-name="Path 587" d="M201.545,158.563h0a.219.219,0,0,1-.158-.079l-1.313-1.531a.223.223,0,0,1,.026-.311.214.214,0,0,1,.306,0L201.567,158l3.063-3.12a.223.223,0,0,1,.311,0,.219.219,0,0,1,0,.311l-3.211,3.29A.241.241,0,0,1,201.545,158.563Z" transform="translate(-183.243 -105.819)" fill="#fff"/>
      <path id="Path_588" data-name="Path 588" d="M271.288,152.014c0,.066-9.993.114-22.314.114s-22.314-.048-22.314-.114,9.989-.114,22.314-.114S271.288,151.944,271.288,152.014Z" transform="translate(-198.225 -104.178)" fill="#263238"/>
      <path id="Path_589" data-name="Path 589" d="M245.445,167.714a4.992,4.992,0,0,1-.739.044l-2.017.035c-1.7.022-4.052.035-6.646.035s-4.948,0-6.651-.035l-2.017-.035a4.961,4.961,0,0,1-.735-.044,4.3,4.3,0,0,1,.735-.044l2.017-.039c1.7,0,4.052-.031,6.651-.031s4.949,0,6.646.031l2.017.039a4.326,4.326,0,0,1,.739.044Z" transform="translate(-198.213 -113.009)" fill="#263238"/>
      <path id="Path_590" data-name="Path 590" d="M271.288,158.974c0,.061-9.993.114-22.314.114s-22.314-.052-22.314-.114,9.989-.114,22.314-.114S271.288,158.921,271.288,158.974Z" transform="translate(-198.225 -108.093)" fill="#263238"/>
      <rect id="Rectangle_27" data-name="Rectangle 27" width="9.389" height="9.389" rx="3.42" transform="translate(14.198 63.175)" fill="#ff725e"/>
      <path id="Path_591" data-name="Path 591" d="M201.543,196.2h0a.2.2,0,0,1-.158-.074l-1.313-1.536a.219.219,0,1,1,.333-.284l1.159,1.352,3.063-3.115a.219.219,0,1,1,.311.306l-3.211,3.286a.223.223,0,0,1-.184.066Z" transform="translate(-183.241 -126.993)" fill="#fff"/>
      <path id="Path_592" data-name="Path 592" d="M271.288,189.684c0,.061-9.993.114-22.314.114s-22.314-.053-22.314-.114,9.989-.114,22.314-.114S271.288,189.623,271.288,189.684Z" transform="translate(-198.225 -125.366)" fill="#263238"/>
      <path id="Path_593" data-name="Path 593" d="M245.445,205.384a4.988,4.988,0,0,1-.739.044l-2.017.035c-1.7,0-4.052.035-6.646.035s-4.948,0-6.651-.035l-2.017-.035a4.963,4.963,0,0,1-.735-.044,4.516,4.516,0,0,1,.735-.048l2.017-.035c1.7-.022,4.052-.031,6.651-.031s4.949,0,6.646.031l2.017.035A4.545,4.545,0,0,1,245.445,205.384Z" transform="translate(-198.213 -134.197)" fill="#263238"/>
      <path id="Path_594" data-name="Path 594" d="M271.288,196.644c0,.061-9.993.114-22.314.114s-22.314-.053-22.314-.114,9.989-.114,22.314-.114S271.288,196.578,271.288,196.644Z" transform="translate(-198.225 -129.281)" fill="#263238"/>
      <rect id="Rectangle_28" data-name="Rectangle 28" width="9.389" height="9.389" rx="3.42" transform="translate(14.198 79.657)" fill="#ff725e"/>
      <path id="Path_595" data-name="Path 595" d="M201.543,233.908h0a.214.214,0,0,1-.158-.074l-1.313-1.536a.219.219,0,0,1,.333-.284l1.159,1.352,3.063-3.115a.219.219,0,1,1,.311.306l-3.211,3.286A.223.223,0,0,1,201.543,233.908Z" transform="translate(-183.241 -148.204)" fill="#fff"/>
      <path id="Path_596" data-name="Path 596" d="M271.288,227.354c0,.061-9.993.114-22.314.114s-22.314-.052-22.314-.114,9.989-.114,22.314-.114S271.288,227.288,271.288,227.354Z" transform="translate(-198.225 -146.555)" fill="#263238"/>
      <path id="Path_597" data-name="Path 597" d="M245.445,243.044a4.324,4.324,0,0,1-.739.044l-2.017.039c-1.7,0-4.052.031-6.646.031s-4.948,0-6.65-.031l-2.017-.039a4.292,4.292,0,0,1-.735-.044,4.967,4.967,0,0,1,.735-.044l2.017-.035c1.7,0,4.052-.035,6.65-.035s4.949,0,6.646.035l2.017.035A4.992,4.992,0,0,1,245.445,243.044Z" transform="translate(-198.213 -155.38)" fill="#263238"/>
      <path id="Path_598" data-name="Path 598" d="M271.288,234.3c0,.066-9.993.114-22.314.114s-22.314-.048-22.314-.114,9.989-.114,22.314-.114S271.288,234.242,271.288,234.3Z" transform="translate(-198.225 -150.464)" fill="#263238"/>
      <rect id="Rectangle_29" data-name="Rectangle 29" width="9.389" height="9.389" rx="3.42" transform="translate(14.198 96.135)" fill="#ff725e"/>
      <path id="Path_599" data-name="Path 599" d="M201.545,271.589h0a.219.219,0,0,1-.158-.079l-1.313-1.531a.223.223,0,0,1,.026-.311.214.214,0,0,1,.306.026l1.159,1.352,3.063-3.12a.219.219,0,0,1,.311,0,.214.214,0,0,1,0,.306l-3.211,3.29A.241.241,0,0,1,201.545,271.589Z" transform="translate(-183.243 -169.403)" fill="#fff"/>
      <path id="Path_600" data-name="Path 600" d="M271.288,265.018c0,.061-9.993.114-22.314.114s-22.314-.053-22.314-.114,9.989-.118,22.314-.118S271.288,264.944,271.288,265.018Z" transform="translate(-198.225 -167.737)" fill="#263238"/>
      <path id="Path_601" data-name="Path 601" d="M245.445,280.714a4.33,4.33,0,0,1-.739.044l-2.017.035c-1.7,0-4.052.035-6.646.035s-4.948,0-6.65-.035l-2.017-.035a4.292,4.292,0,0,1-.735-.044,4.3,4.3,0,0,1,.735-.044l2.017-.035c1.7-.022,4.052-.035,6.65-.035s4.949,0,6.646.035l2.017.035A4.33,4.33,0,0,1,245.445,280.714Z" transform="translate(-198.213 -176.568)" fill="#263238"/>
      <path id="Path_602" data-name="Path 602" d="M271.288,271.974c0,.061-9.993.114-22.314.114s-22.314-.052-22.314-.114,9.989-.114,22.314-.114S271.288,271.921,271.288,271.974Z" transform="translate(-198.225 -171.652)" fill="#263238"/>
      <path id="Path_603" data-name="Path 603" d="M223.419,123.932a1.247,1.247,0,0,1-.984.438,6.7,6.7,0,0,1-3.255-2.7,2.026,2.026,0,1,1,4.052,0,1.886,1.886,0,0,1-1.409,1.855.823.823,0,0,0,.63.319.875.875,0,0,0,.643-.3ZM221.206,123a1.313,1.313,0,1,0-1.313-1.313A1.282,1.282,0,0,0,221.206,123Z" transform="translate(-194.017 -86.033)" fill="#263238"/>
      <path id="Path_604" data-name="Path 604" d="M232.72,122v2.87h-.639v-.363a1.168,1.168,0,0,1-.923.4,1.138,1.138,0,0,1-1.238-1.269V122h.674v1.549c0,.521.245.77.674.77a.757.757,0,0,0,.783-.875V122Z" transform="translate(-200.053 -87.36)" fill="#263238"/>
      <path id="Path_605" data-name="Path 605" d="M240.488,123.162v1.68h-.634V124.5a1.024,1.024,0,0,1-.906.385c-.652,0-1.068-.359-1.068-.875s.324-.853,1.194-.853h.739v-.044c0-.389-.236-.621-.713-.621a1.4,1.4,0,0,0-.875.284l-.263-.49a2.017,2.017,0,0,1,1.212-.354C240.006,121.959,240.488,122.335,240.488,123.162Zm-.674.783v-.333h-.691c-.459,0-.582.171-.582.381s.206.4.547.4a.731.731,0,0,0,.726-.446Z" transform="translate(-204.536 -87.32)" fill="#263238"/>
      <path id="Path_606" data-name="Path 606" d="M245.8,119.48h.674v3.986H245.8Z" transform="translate(-208.99 -85.943)" fill="#263238"/>
      <path id="Path_607" data-name="Path 607" d="M249.14,119.481a.411.411,0,0,1,.438-.4.4.4,0,0,1,.438.389.438.438,0,1,1-.875,0Zm.092.875h.674v2.87h-.674Z" transform="translate(-210.869 -85.716)" fill="#263238"/>
      <path id="Path_608" data-name="Path 608" d="M254.118,123.931a1.068,1.068,0,0,1-.643.193.875.875,0,0,1-.989-.967v-1.383H252v-.538h.473v-.656h.669v.656h.77v.538h-.77v1.365c0,.28.14.438.4.438a.586.586,0,0,0,.376-.118Z" transform="translate(-212.478 -86.562)" fill="#263238"/>
      <path id="Path_609" data-name="Path 609" d="M259.99,122l-1.343,3.1a1.116,1.116,0,0,1-1.107.849,1.186,1.186,0,0,1-.77-.263l.267-.494a.744.744,0,0,0,.494.2c.236,0,.376-.109.508-.394l.048-.114L256.836,122h.7l.906,2.126.906-2.126Z" transform="translate(-215.161 -87.36)" fill="#263238"/>
      <path id="Path_610" data-name="Path 610" d="M267.929,121.83a1.89,1.89,0,0,1,1.973-1.912,1.842,1.842,0,0,1,1.378.547l-.254.254a1.5,1.5,0,0,0-1.111-.438,1.562,1.562,0,1,0,0,3.12,1.483,1.483,0,0,0,1.111-.438l.254.249a1.838,1.838,0,0,1-1.383.556,1.89,1.89,0,0,1-1.969-1.938Z" transform="translate(-221.437 -86.188)" fill="#263238"/>
      <path id="Path_611" data-name="Path 611" d="M276.409,123.515a1.439,1.439,0,1,1,1.439,1.444,1.391,1.391,0,0,1-1.439-1.444Zm2.485,0a1.05,1.05,0,1,0-1.046,1.1,1.028,1.028,0,0,0,1.046-1.1Z" transform="translate(-226.206 -87.406)" fill="#263238"/>
      <path id="Path_612" data-name="Path 612" d="M287.359,123.287v1.636h-.381v-1.6a.788.788,0,0,0-.849-.9.928.928,0,0,0-.989,1.019v1.483h-.381V122.1h.363v.521a1.2,1.2,0,0,1,1.076-.543,1.081,1.081,0,0,1,1.159,1.212Z" transform="translate(-230.904 -87.401)" fill="#263238"/>
      <path id="Path_613" data-name="Path 613" d="M294,123.993a.91.91,0,0,1-.6.2.748.748,0,0,1-.827-.823v-1.711h-.5v-.324h.5v-.617h.381v.617h.875v.324h-.875v1.689a.438.438,0,0,0,.49.516.617.617,0,0,0,.438-.149Z" transform="translate(-235.016 -86.641)" fill="#263238"/>
      <path id="Path_614" data-name="Path 614" d="M299.482,122.074v.372h-.087a.914.914,0,0,0-.954,1.041v1.439h-.381V122.1h.363v.556A1.072,1.072,0,0,1,299.482,122.074Z" transform="translate(-238.385 -87.399)" fill="#263238"/>
      <path id="Path_615" data-name="Path 615" d="M302.169,123.515a1.439,1.439,0,1,1,1.444,1.444,1.391,1.391,0,0,1-1.444-1.444Zm2.49,0a1.05,1.05,0,1,0-1.046,1.1,1.028,1.028,0,0,0,1.046-1.1Z" transform="translate(-240.695 -87.406)" fill="#263238"/>
      <path id="Path_616" data-name="Path 616" d="M310.52,119.48h.385v3.986h-.385Z" transform="translate(-245.393 -85.943)" fill="#263238"/>
      <path id="Path_617" data-name="Path 617" d="M199,64.92v5.789a6.082,6.082,0,0,0,6.082,6.086h42.484a6.086,6.086,0,0,0,6.086-6.086V64.955Z" transform="translate(-182.667 -55.255)" fill="#263238"/>
      <path id="Path_618" data-name="Path 618" d="M254.048,54.206a5.688,5.688,0,1,1,5.688-5.688A5.688,5.688,0,0,1,254.048,54.206Zm0-9.223a3.5,3.5,0,1,0,3.5,3.5A3.5,3.5,0,0,0,254.048,44.983Z" transform="translate(-210.43 -42.83)" fill="#263238"/>
    </g>
    <g id="freepik--character-2--inject-5" transform="translate(245.689 80.296)">
      <path id="Path_619" data-name="Path 619" d="M611.669,444l2.275,9.678,4.5,7.723a1.111,1.111,0,0,1-.468,1.558h0a1.094,1.094,0,0,1-1.02,0c-2.021-1.089-9.433-5.137-9.582-5.915-.175-.906-3.106-11.091-3.106-11.091Z" transform="translate(-564.293 -305.941)" fill="#ff725e"/>
      <g id="Group_20" data-name="Group 20" transform="translate(42.887 150.389)" opacity="0.6">
        <path id="Path_620" data-name="Path 620" d="M621.718,478.822l-10.8-6.642.122.438a1.681,1.681,0,0,0,.67.941c.875.6,3.351,2.188,8.956,5.25a1.116,1.116,0,0,0,1.05,0Z" transform="translate(-610.92 -472.18)" fill="#fff"/>
      </g>
      <g id="Group_21" data-name="Group 21" transform="translate(43.265 146.392)" opacity="0.6">
        <path id="Path_621" data-name="Path 621" d="M612.618,463.074a.678.678,0,0,1,.416.8.648.648,0,0,1-.788.411.7.7,0,0,1-.438-.845.669.669,0,0,1,.875-.341" transform="translate(-611.784 -463.045)" fill="#fff"/>
      </g>
      <path id="Path_622" data-name="Path 622" d="M627.206,476.258a3.419,3.419,0,0,1,.691-1.068,3.5,3.5,0,0,1,1.142-.564c0-.026-.153-.07-.407-.039a1.773,1.773,0,0,0-.875.438,1.75,1.75,0,0,0-.525.836C627.154,476.1,627.18,476.258,627.206,476.258Z" transform="translate(-577.179 -323.139)" fill="#263238"/>
      <path id="Path_623" data-name="Path 623" d="M629.815,479.617c.061.035.306-.4.8-.7a9.541,9.541,0,0,1,.989-.438,1.238,1.238,0,0,0-1.116.214C629.924,479.061,629.754,479.6,629.815,479.617Z" transform="translate(-578.654 -325.303)" fill="#263238"/>
      <path id="Path_624" data-name="Path 624" d="M622.924,472.664a12.078,12.078,0,0,1,1.168-1.173,11.857,11.857,0,0,1,1.453-.792,3.063,3.063,0,0,0-2.625,1.965Z" transform="translate(-574.783 -320.959)" fill="#263238"/>
      <path id="Path_625" data-name="Path 625" d="M620.48,466.794c.044.057.556-.346,1.313-.582s1.391-.219,1.4-.289a2.778,2.778,0,0,0-2.7.875Z" transform="translate(-573.41 -318.234)" fill="#263238"/>
      <path id="Path_626" data-name="Path 626" d="M618.516,459.788a3.526,3.526,0,0,1,2.822-.678c0-.026-.14-.127-.437-.2a2.42,2.42,0,0,0-2.118.512C618.581,459.617,618.494,459.788,618.516,459.788Z" transform="translate(-572.303 -314.29)" fill="#263238"/>
      <path id="Path_627" data-name="Path 627" d="M618.748,455.578a1,1,0,0,0-.1-.4,2.894,2.894,0,0,0-.6-.949,1.268,1.268,0,0,0-.687-.437.437.437,0,0,0-.438.232.726.726,0,0,0-.031.516,1.575,1.575,0,0,0,1.715,1.037,1.825,1.825,0,0,0,1.47-1.4.613.613,0,0,0-.109-.512.438.438,0,0,0-.5-.1,1.544,1.544,0,0,0-.591.551,3.2,3.2,0,0,0-.49,1.011.983.983,0,0,0-.061.407,5.047,5.047,0,0,1,.683-1.313,1.421,1.421,0,0,1,.529-.464.223.223,0,0,1,.271.052.438.438,0,0,1,.057.341,1.641,1.641,0,0,1-1.291,1.2,1.365,1.365,0,0,1-1.47-.875.512.512,0,0,1,0-.363.236.236,0,0,1,.249-.131,1.134,1.134,0,0,1,.586.359,4.249,4.249,0,0,1,.805,1.243Z" transform="translate(-571.376 -311.297)" fill="#263238"/>
      <g id="Group_22" data-name="Group 22" transform="translate(40.31 139.941)" opacity="0.3">
        <path id="Path_628" data-name="Path 628" d="M605.03,449.521l.411,1.448,7.342-1.615-.245-1.054Z" transform="translate(-605.03 -448.3)"/>
      </g>
      <path id="Path_629" data-name="Path 629" d="M545.2,449.506l.508,7.731s-7.687,3.115-7.709,4.555l15.029-.438-.3-12.085Z" transform="translate(-527.018 -308.905)" fill="#ff725e"/>
      <g id="Group_23" data-name="Group 23" transform="translate(22.603 147.52)" opacity="0.6">
        <path id="Path_630" data-name="Path 630" d="M565.278,465.643a.617.617,0,0,1,.438.687.591.591,0,0,1-.678.438.652.652,0,0,1-.468-.731.617.617,0,0,1,.757-.389" transform="translate(-564.561 -465.622)" fill="#fff"/>
      </g>
      <g id="Group_24" data-name="Group 24" transform="translate(10.943 151.229)" opacity="0.6">
        <path id="Path_631" data-name="Path 631" d="M552.957,475.308l-.031-1.208-14.439.875s-.661.311-.569.779Z" transform="translate(-537.91 -474.1)" fill="#fff"/>
      </g>
      <path id="Path_632" data-name="Path 632" d="M555.059,467.218c0,.074.372.1.744.324s.569.525.634.494-.057-.437-.508-.718S555.032,467.152,555.059,467.218Z" transform="translate(-536.612 -318.956)" fill="#263238"/>
      <path id="Path_633" data-name="Path 633" d="M551.5,468.881c0,.07.311.188.569.49s.337.63.411.626.109-.437-.219-.8S551.5,468.811,551.5,468.881Z" transform="translate(-534.611 -319.919)" fill="#263238"/>
      <path id="Path_634" data-name="Path 634" d="M548.788,471.686c.066,0,.157-.354-.044-.753s-.547-.543-.578-.481.188.271.35.6S548.713,471.682,548.788,471.686Z" transform="translate(-532.734 -320.812)" fill="#263238"/>
      <path id="Path_635" data-name="Path 635" d="M555.237,462.894c.035.07.368-.044.783-.026s.744.136.779.07-.28-.315-.77-.328S555.2,462.841,555.237,462.894Z" transform="translate(-536.712 -316.408)" fill="#263238"/>
      <g id="Group_25" data-name="Group 25" transform="translate(18.215 140.667)" opacity="0.3">
        <path id="Path_636" data-name="Path 636" d="M554.53,450.17l.087,1.374,7.429-.214V449.96Z" transform="translate(-554.53 -449.96)"/>
      </g>
      <path id="Path_637" data-name="Path 637" d="M555.07,458.064a1.374,1.374,0,0,0,.753-.026,3.224,3.224,0,0,0,.783-.262,3.523,3.523,0,0,0,.438-.245.874.874,0,0,0,.223-.184.32.32,0,0,0,.022-.389.407.407,0,0,0-.328-.157.878.878,0,0,0-.28.048,2.751,2.751,0,0,0-.464.171,2.78,2.78,0,0,0-.682.477,1.737,1.737,0,0,0-.438.626c0,.013.2-.21.547-.49a3.136,3.136,0,0,1,.656-.4,3.282,3.282,0,0,1,.437-.144c.158-.048.293-.052.337,0s0,.035,0,.083a.9.9,0,0,1-.162.136,3.8,3.8,0,0,1-.394.241,4.187,4.187,0,0,1-.717.3A5.911,5.911,0,0,0,555.07,458.064Z" transform="translate(-536.619 -313.14)" fill="#263238"/>
      <path id="Path_638" data-name="Path 638" d="M553.961,456.9a1.227,1.227,0,0,0,.175-.735,2.326,2.326,0,0,0-.127-.818,2.284,2.284,0,0,0-.206-.438.621.621,0,0,0-.49-.368.359.359,0,0,0-.311.219,1.075,1.075,0,0,0-.066.28,1.781,1.781,0,0,0,0,.508,1.75,1.75,0,0,0,.346.766c.306.381.612.459.621.438a3.04,3.04,0,0,1-.477-.538,1.784,1.784,0,0,1-.258-.7,1.6,1.6,0,0,1,0-.437c.022-.162.074-.293.136-.28a.535.535,0,0,1,.271.241,2.311,2.311,0,0,1,.2.4,2.735,2.735,0,0,1,.166.748C553.991,456.609,553.921,456.89,553.961,456.9Z" transform="translate(-535.409 -311.869)" fill="#263238"/>
      <path id="Path_639" data-name="Path 639" d="M591.608,162.46a1.365,1.365,0,0,0-.179,1.7,4.622,4.622,0,0,0,1.313,1.313,3.093,3.093,0,0,1,1.19,1.4c.359,1.094-.438,2.336,0,3.4.368.928,1.51,1.313,2.017,2.188a3.527,3.527,0,0,1-.144,2.975,5.5,5.5,0,0,0-.643,2.971,5.05,5.05,0,0,1,.354,1.654c-.092.818-.914,1.313-1.693,1.606a7.845,7.845,0,0,1-3.981.306,3.561,3.561,0,0,1-2.463-1.422,4.587,4.587,0,0,1-.437-2.437,71.491,71.491,0,0,1,1.794-14.439" transform="translate(-554.545 -147.584)" fill="#263238"/>
      <path id="Path_640" data-name="Path 640" d="M535.211,211.2l4.642-11.056s3.233-10.063,8.383-9.9l1.243,9.057-7.136,15.362-7.653-3.29" transform="translate(-525.156 -163.207)" fill="#e0e0e0"/>
      <path id="Path_641" data-name="Path 641" d="M544.915,251.79s-8.388,16.543-8.248,21.719c.079,2.879,4.476,65.328,4.476,65.328H553.8l-2.341-65.14,13.275,65.591,11.205-1.82L567,267.327s-1.531-9.547-4.682-13.463Z" transform="translate(-526.268 -197.829)" fill="#263238"/>
      <path id="Path_642" data-name="Path 642" d="M569.815,286.22a26.1,26.1,0,0,1,.241,3.417,25.265,25.265,0,0,1,0,3.426,26.1,26.1,0,0,1-.241-3.417,25.3,25.3,0,0,1,0-3.426Z" transform="translate(-544.88 -217.195)" fill="#455a64"/>
      <path id="Path_643" data-name="Path 643" d="M597.428,294.095a1.234,1.234,0,0,1-.394.092,6.251,6.251,0,0,1-1.107.039,6.734,6.734,0,0,1-5.789-3.938,6.118,6.118,0,0,1-.368-1.046,1.358,1.358,0,0,1-.061-.4c.044,0,.162.556.573,1.378a7,7,0,0,0,5.653,3.85C596.837,294.16,597.424,294.055,597.428,294.095Z" transform="translate(-556.103 -218.668)" fill="#455a64"/>
      <path id="Path_644" data-name="Path 644" d="M541.772,287.1a3.741,3.741,0,0,1-.437,1.015,10.454,10.454,0,0,1-1.584,2.153,10.213,10.213,0,0,1-2.087,1.676,3.628,3.628,0,0,1-.993.481,13.77,13.77,0,0,0,5.1-5.325Z" transform="translate(-526.27 -217.69)" fill="#455a64"/>
      <path id="Path_645" data-name="Path 645" d="M568.432,366.4a.808.808,0,0,1-.022-.175c0-.127-.026-.293-.044-.512-.035-.464-.083-1.124-.144-1.969-.114-1.72-.28-4.192-.481-7.241-.385-6.125-.919-14.574-1.505-23.9s-1.089-17.79-1.426-23.911a22.111,22.111,0,0,1,.766-7.206,5.091,5.091,0,0,1,.91-1.75,1.929,1.929,0,0,1,.368-.359l.14-.109a.878.878,0,0,1-.127.127,2.073,2.073,0,0,0-.346.367,5.328,5.328,0,0,0-.875,1.75,22.769,22.769,0,0,0-.691,7.176c.385,6.125.914,14.57,1.5,23.9s1.068,17.777,1.44,23.907c.171,3.063.311,5.522.407,7.245.044.844.079,1.51.1,1.973a3.354,3.354,0,0,0,.022.512.88.88,0,0,1,.013.175Z" transform="translate(-542.089 -224.535)" fill="#455a64"/>
      <path id="Path_646" data-name="Path 646" d="M613.256,366.223c-.061,0-2.131-14.583-4.62-32.592S604.177,301,604.238,301s2.131,14.579,4.62,32.592S613.321,366.214,613.256,366.223Z" transform="translate(-564.274 -225.508)" fill="#455a64"/>
      <path id="Path_647" data-name="Path 647" d="M573.014,217.039l2.385-12.067,1.842-12.977a12.028,12.028,0,0,0-5.889-2.8l-11.056.459-4.165,9.774.438,20.2Z" transform="translate(-537.215 -162.619)" fill="#e0e0e0"/>
      <path id="Path_648" data-name="Path 648" d="M579.668,189.66s-5.277,11.721-8.064,12.5c-1.247,4.966-2.354,31.231-2.354,31.231l17.392-.7L581.5,215.623l2.078-8.536s-2.258-13.515.162-15.852A7.859,7.859,0,0,0,579.668,189.66Z" transform="translate(-544.595 -162.883)" fill="#ff725e"/>
      <path id="Path_649" data-name="Path 649" d="M552.156,189.15a44.853,44.853,0,0,0-.438,6.952,8.664,8.664,0,0,0,2.358,5.6h0l-2.31,31.375-12.317-1.794s2.542-7.849,4.568-11.266c0,0,.963-1.623,2.73-4.695,0,0-1.234-10.015-1.278-11.428,0-.534,3.19-13.7,3.19-13.7a4.612,4.612,0,0,1,3.5-1.046Z" transform="translate(-527.833 -162.579)" fill="#ff725e"/>
      <path id="Path_650" data-name="Path 650" d="M557.651,150.447c-1.579-.416-2.551-.976-2.551-1.6,0-1.278,4.13-2.31,9.223-2.31s9.219,1.033,9.219,2.31c0,.617-.958,1.177-2.52,1.593" transform="translate(-536.636 -138.629)" fill="#ff725e"/>
      <g id="Group_26" data-name="Group 26" transform="translate(19.635 8.309)" opacity="0.4">
        <path id="Path_651" data-name="Path 651" d="M560.036,150.915c-1.4-.368-2.3-.875-2.258-1.413.1-1.527,3.658-2.052,8.173-2.052s8.169.919,8.169,2.052c0,.543-.849,1.041-2.236,1.409" transform="translate(-557.777 -147.45)"/>
      </g>
      <path id="Path_652" data-name="Path 652" d="M590.144,152.47a1.779,1.779,0,0,0,.831,1.75,9.063,9.063,0,0,1,1.628,1.238,2.713,2.713,0,0,1,.236,2.665,6.1,6.1,0,0,1-1.75,2.188,2.069,2.069,0,0,1-1.9.687" transform="translate(-555.811 -141.965)" fill="#263238"/>
      <path id="Path_653" data-name="Path 653" d="M591.657,193.26c-.219,0-1.028,2.061-1.632,3.938a12.412,12.412,0,0,0,1.011,9.989l3.828,6.729-11.525,3.868,1.689,5.395,16.127-4.327a4.686,4.686,0,0,0,3.212-2.966h0a4.677,4.677,0,0,0-.363-3.938L595.6,197.508S592.865,193.256,591.657,193.26Z" transform="translate(-552.52 -164.908)" fill="#e0e0e0"/>
      <path id="Path_654" data-name="Path 654" d="M575.048,146.444a6.23,6.23,0,0,0-6.563-6.125,6.357,6.357,0,0,0-5.915,6.419,69.132,69.132,0,0,0,.206,6.926,5.051,5.051,0,0,0,3.338,4.375,4.068,4.068,0,0,0,.875.087h0v.022l-.171,3.737a4.147,4.147,0,0,0,4.1,4.375c2.428,0,4.038-2.1,4.052-4.542Z" transform="translate(-540.837 -135.125)" fill="#ffbe9d"/>
      <path id="Path_655" data-name="Path 655" d="M565.28,158.145a.508.508,0,0,0,.49.512.486.486,0,0,0,.525-.438.5.5,0,0,0-.49-.512A.486.486,0,0,0,565.28,158.145Z" transform="translate(-542.362 -144.91)" fill="#263238"/>
      <path id="Path_656" data-name="Path 656" d="M564.52,155.994c.066.07.438-.219,1-.214s.949.276,1.006.206-.035-.149-.21-.276a1.4,1.4,0,0,0-.8-.249,1.312,1.312,0,0,0-.792.258C564.546,155.845,564.489,155.967,564.52,155.994Z" transform="translate(-541.93 -143.647)" fill="#263238"/>
      <path id="Path_657" data-name="Path 657" d="M577.52,158.145a.508.508,0,0,0,.49.512.486.486,0,0,0,.525-.438.507.507,0,0,0-.49-.512A.486.486,0,0,0,577.52,158.145Z" transform="translate(-549.247 -144.91)" fill="#263238"/>
      <path id="Path_658" data-name="Path 658" d="M576.82,156.234c.066.066.438-.219,1-.219s.949.276,1.011.21-.035-.149-.21-.28a1.391,1.391,0,0,0-.809-.245,1.339,1.339,0,0,0-.792.254C576.846,156.085,576.789,156.2,576.82,156.234Z" transform="translate(-548.848 -143.781)" fill="#263238"/>
      <path id="Path_659" data-name="Path 659" d="M570.523,160.305a3.533,3.533,0,0,0-.875-.162c-.14,0-.271-.039-.3-.136a.722.722,0,0,1,.1-.438l.411-1.063a18.444,18.444,0,0,0,.927-2.787,18.96,18.96,0,0,0-1.151,2.7c-.135.376-.267.731-.394,1.072a.814.814,0,0,0-.074.547.345.345,0,0,0,.232.206,1,1,0,0,0,.236.035,3.76,3.76,0,0,0,.888.022Z" transform="translate(-544.538 -143.793)" fill="#263238"/>
      <path id="Path_660" data-name="Path 660" d="M572.627,179.178a8.738,8.738,0,0,0,4.756-1.418s-.831,2.8-4.813,2.424Z" transform="translate(-546.462 -156.19)" fill="#eb996e"/>
      <path id="Path_661" data-name="Path 661" d="M572.738,168.74a.976.976,0,0,1,.875-.368.9.9,0,0,1,.621.333.569.569,0,0,1,.044.652.656.656,0,0,1-.718.184,2.135,2.135,0,0,1-.7-.438.6.6,0,0,1-.153-.162.171.171,0,0,1,0-.2" transform="translate(-546.521 -150.906)" fill="#eb996e"/>
      <path id="Path_662" data-name="Path 662" d="M573.761,167.07c-.088,0-.088.586-.6,1.011s-1.142.354-1.146.438.14.114.407.123a1.483,1.483,0,0,0,.958-.333,1.312,1.312,0,0,0,.464-.849C573.857,167.21,573.792,167.065,573.761,167.07Z" transform="translate(-546.153 -150.177)" fill="#263238"/>
      <path id="Path_663" data-name="Path 663" d="M576.267,154.2c.053.149.6.079,1.243.153s1.164.254,1.247.118c.039-.061-.052-.2-.262-.346a2.075,2.075,0,0,0-.923-.324,2.039,2.039,0,0,0-.971.114C576.363,154.009,576.245,154.123,576.267,154.2Z" transform="translate(-548.54 -142.704)" fill="#263238"/>
      <path id="Path_664" data-name="Path 664" d="M564.977,153.415c.1.123.473,0,.928,0s.84.083.928-.044-.022-.188-.193-.306a1.339,1.339,0,0,0-1.492.044C564.977,153.227,564.929,153.358,564.977,153.415Z" transform="translate(-542.182 -142.184)" fill="#263238"/>
      <path id="Path_665" data-name="Path 665" d="M577.872,166.474a.072.072,0,1,1-.026.017" transform="translate(-549.419 -149.839)" fill="#263238"/>
      <path id="Path_666" data-name="Path 666" d="M570.58,148.359a3.5,3.5,0,0,0,2.573,1.5c.669.053,1.435-.066,1.943.376a2.915,2.915,0,0,1,.639,1.313,3.164,3.164,0,0,0,1.356,1.728c.508.284,1.142.407,1.51.875a2.976,2.976,0,0,1,.363,1.776,1.72,1.72,0,0,0,.709,1.6q.031-3.365.061-6.742a2.684,2.684,0,0,0-.118-.989,2.467,2.467,0,0,0-1.8-1.238,27.223,27.223,0,0,0-6.366-.7" transform="translate(-545.343 -139.372)" fill="#263238"/>
      <path id="Path_667" data-name="Path 667" d="M558,138.874s1.313-5.421,1.431-5.688a7.75,7.75,0,0,1,5.351-3.317h3.063s4.332,1.4,5.124,2.45S574.1,138.5,574.1,138.5l-8.558-1.859-5.819,1.418Z" transform="translate(-538.267 -129.253)" fill="#ff725e"/>
      <path id="Path_668" data-name="Path 668" d="M573.069,128.46h-1.313a2.121,2.121,0,0,0-.521,1.378c-.061.949-.276,7.438-.276,7.438l3.824-.171-.122-8.042,1.313.289-.039-.438-.346-.407Z" transform="translate(-545.557 -128.46)" fill="#ff725e"/>
      <path id="Path_669" data-name="Path 669" d="M561.72,146.814l.074-1.969,5.758-1.715,7.193,2.131v2.118a17.7,17.7,0,0,0-13.025-.564Z" transform="translate(-540.36 -136.711)" fill="#455a64"/>
      <path id="Path_670" data-name="Path 670" d="M559.723,144.4l-.254.249-2.07,1.313a32.816,32.816,0,0,1,8.1-1.076,38.327,38.327,0,0,1,8.834,1.435l-2.73-1.641h0a4.7,4.7,0,0,0-3.338-1.492l-5.176-.1A4.725,4.725,0,0,0,559.723,144.4Z" transform="translate(-537.93 -136.688)" fill="#ff725e"/>
      <path id="Path_671" data-name="Path 671" d="M571.122,135.685a17.162,17.162,0,0,1,.039-2.756,16.668,16.668,0,0,1,.267-2.739,17.094,17.094,0,0,1-.039,2.752A16.842,16.842,0,0,1,571.122,135.685Z" transform="translate(-545.627 -129.433)" fill="#263238"/>
      <path id="Path_672" data-name="Path 672" d="M580.594,130.18a5.057,5.057,0,0,1-.963-.122.249.249,0,0,0-.236.241v.569c0,.416,0,.853.031,1.313v2.393a4.492,4.492,0,0,1-.066.989,4.433,4.433,0,0,1-.1-.989c-.031-.613-.057-1.457-.074-2.389v-1.895a.438.438,0,0,1,.438-.389A3.555,3.555,0,0,1,580.594,130.18Z" transform="translate(-550.186 -129.27)" fill="#263238"/>
      <path id="Path_673" data-name="Path 673" d="M557.1,145.52a.984.984,0,0,1,.162-.1c.109-.061.276-.14.494-.236s.486-.2.779-.35a2.188,2.188,0,0,0,.84-.691c.245-.315.28-.814.621-1.234a1.177,1.177,0,0,1,.709-.407,5.183,5.183,0,0,1,.823-.074c1.116-.057,2.345-.074,3.636-.039s2.511.114,3.627.21a2.376,2.376,0,0,1,1.518.543,3.985,3.985,0,0,1,.437.582l.193.276.1.131a.333.333,0,0,0,.1.074c.739.381,1.378.648,1.794.875.21.1.372.193.477.254a.707.707,0,0,1,.162.109s-.245-.1-.678-.284-1.063-.438-1.833-.805a.438.438,0,0,1-.153-.114l-.1-.131c-.066-.088-.136-.179-.2-.276a4.028,4.028,0,0,0-.437-.547,2.188,2.188,0,0,0-1.409-.468c-1.107-.087-2.328-.158-3.614-.192s-2.507-.026-3.614,0c-.551,0-1.111,0-1.4.394s-.354.849-.634,1.208a2.359,2.359,0,0,1-.914.713c-.311.14-.582.236-.8.315A6.712,6.712,0,0,1,557.1,145.52Z" transform="translate(-537.761 -136.283)" fill="#263238"/>
      <path id="Path_674" data-name="Path 674" d="M558.87,148.472a.683.683,0,0,1,.127-.109,2.242,2.242,0,0,1,.438-.263,7.153,7.153,0,0,1,1.7-.591,19.3,19.3,0,0,1,5.893-.35c1.146.083,2.249.14,3.242.28a24.187,24.187,0,0,1,2.625.551,9.917,9.917,0,0,1,.976.315,1.688,1.688,0,0,1,.678.4.669.669,0,0,1,.193.438.262.262,0,0,1-.039.171.7.7,0,0,0-.214-.569,1.609,1.609,0,0,0-.661-.337c-.28-.1-.608-.193-.971-.284-.726-.171-1.615-.359-2.595-.494s-2.078-.179-3.229-.263a20.761,20.761,0,0,0-5.841.28,8.313,8.313,0,0,0-1.693.512C559.067,148.354,558.883,148.5,558.87,148.472Z" transform="translate(-538.756 -138.93)" fill="#263238"/>
      <path id="Path_675" data-name="Path 675" d="M572.56,143.324a1.884,1.884,0,0,1,.271,0h.744c.626,0,1.492.061,2.446.14.473.039.928.083,1.339.131a5.83,5.83,0,0,1,1.089.179,1.058,1.058,0,0,1,.595.438.485.485,0,0,1,.083.258,1.167,1.167,0,0,0-.114-.241,1.094,1.094,0,0,0-.582-.407,6.568,6.568,0,0,0-1.081-.158l-1.339-.123c-.954-.079-1.816-.131-2.441-.166l-.739-.039A1.137,1.137,0,0,1,572.56,143.324Z" transform="translate(-546.457 -136.818)" fill="#fafafa"/>
      <path id="Path_676" data-name="Path 676" d="M578.852,135.228a1.109,1.109,0,0,1-.035-.193c0-.123-.039-.306-.066-.529-.044-.438-.092-1.063-.114-1.75s0-1.313,0-1.75a2.532,2.532,0,0,1,.031-.529.824.824,0,0,1,.026-.2,1,1,0,0,1,0,.2v2.28c0,.683.057,1.313.087,1.75l.035.529A.574.574,0,0,1,578.852,135.228Z" transform="translate(-549.87 -129.484)" fill="#fafafa"/>
      <path id="Path_677" data-name="Path 677" d="M589,147.14a.716.716,0,0,1,.179.057l.468.184,1.536.634a5.622,5.622,0,0,1,.831.394,1.067,1.067,0,0,1,.481.582.722.722,0,0,1,0,.508.332.332,0,0,1-.114.149.664.664,0,0,0,.079-.162.717.717,0,0,0,0-.477,1,1,0,0,0-.464-.529,6.563,6.563,0,0,0-.823-.381l-1.527-.661-.437-.21A1.093,1.093,0,0,1,589,147.14Z" transform="translate(-555.704 -138.967)" fill="#fafafa"/>
      <path id="Path_678" data-name="Path 678" d="M574.05,128.809a4.257,4.257,0,0,1,.538-.022H575.9a9.189,9.189,0,0,1,1.313.066.675.675,0,0,1,.354.193.254.254,0,0,1,.07.131.621.621,0,0,0-.438-.258c-.315-.057-.783-.022-1.313-.044s-.963-.022-1.313-.035A2.846,2.846,0,0,1,574.05,128.809Z" transform="translate(-547.295 -128.643)" fill="#fafafa"/>
      <path id="Path_679" data-name="Path 679" d="M561.417,150.414a8.71,8.71,0,0,0,.372,5.207,18.456,18.456,0,0,1,.3-3.225,4.3,4.3,0,0,1,.494-1.488,2.4,2.4,0,0,1,1.475-.661c.538-.118,1.133-.2,1.313-.718a15.488,15.488,0,0,0-3.973.875" transform="translate(-540.057 -140.311)" fill="#263238"/>
      <path id="Path_680" data-name="Path 680" d="M564.634,183.3a2.441,2.441,0,0,0-1.575.7A7.426,7.426,0,0,1,562,185.386c-.464.359-1.028.438-1.422.823-.779.748-.4,2.061-.735,3.063a7.56,7.56,0,0,1-.976,1.614,2,2,0,0,0-.337,1.785,1.553,1.553,0,0,0,1.216.875,3.338,3.338,0,0,0,1.531-.21l-.061-1.216a1.753,1.753,0,0,0,.284.656.6.6,0,0,0,.643.214c.35-.14.359-.626.324-1a6.062,6.062,0,0,1,.722-4.043c.372-.547,1.006-1.124,1.313-1.7l.122-2.953" transform="translate(-538.518 -159.3)" fill="#263238"/>
      <path id="Path_681" data-name="Path 681" d="M520.726,231.124s.783-1.706,1.925-1.636,4.345.438,4.345.438l.354,1.566-7-.359" transform="translate(-517.09 -185.283)" fill="#ffbe9d"/>
      <path id="Path_682" data-name="Path 682" d="M528.81,224.8l1.956-6.06a.757.757,0,0,1,.722-.525h0a.761.761,0,0,1,.735.967l-1.693,5.959Z" transform="translate(-521.849 -178.947)" fill="#ff725e"/>
      <path id="Path_683" data-name="Path 683" d="M512.9,233.26h19.006l12.605,17.129-17.777-.258Z" transform="translate(-512.9 -187.407)" fill="#263238"/>
      <path id="Path_684" data-name="Path 684" d="M559.268,247.421a15.081,15.081,0,0,1,2.546-.079c.993.1,4.734.949,4.734.949l1.6,4.966-1.855-.166-1.247.6a33.531,33.531,0,0,1-4.717.438s-.748-.438-.525-.849c0,0-1.7-.2-1.523-1.549a1.409,1.409,0,0,1-1.1-1.221l-3.111-.171a.621.621,0,0,1-.582-.564h0c-.031-.35.438-.473.792-.486l4.852-.21a.713.713,0,0,0,.534-1.146Z" transform="translate(-535.729 -195.315)" fill="#ffbe9d"/>
      <g id="Group_27" data-name="Group 27" transform="translate(24.76 61.018)" opacity="0.5">
        <path id="Path_685" data-name="Path 685" d="M569.687,271.009l14.452-3.089,1.615,5.347L569.49,275.06Z" transform="translate(-569.49 -267.92)" fill="#fff"/>
      </g>
      <g id="Group_28" data-name="Group 28" transform="translate(12.435 60.559)" opacity="0.5">
        <path id="Path_686" data-name="Path 686" d="M553.251,270.327l-9.713-3.457-2.218,5.259,11.686,2.161Z" transform="translate(-541.32 -266.87)" fill="#fff"/>
      </g>
      <path id="Path_687" data-name="Path 687" d="M593.341,166.35a.8.8,0,0,1,.039.656,1.847,1.847,0,0,1-1.028,1.208,1.9,1.9,0,0,1-1.575-.179.993.993,0,0,1-.437-.494,2.294,2.294,0,0,0,.516.354,1.934,1.934,0,0,0,1.413.109,1.847,1.847,0,0,0,.954-1.046A3.648,3.648,0,0,0,593.341,166.35Z" transform="translate(-556.457 -149.772)" fill="#455a64"/>
      <path id="Path_688" data-name="Path 688" d="M592.864,164.229a1.431,1.431,0,0,1-.477.608,1.856,1.856,0,0,1-.753.4,1.457,1.457,0,0,1-1.054-.114,1.807,1.807,0,0,1-.731-.757,2.477,2.477,0,0,1-.254-.809,1.75,1.75,0,0,1,0-.766,4.954,4.954,0,0,1,.157.735,2.043,2.043,0,0,0,.928,1.4,1.313,1.313,0,0,0,.9.109,1.838,1.838,0,0,0,.7-.319C592.654,164.444,592.833,164.194,592.864,164.229Z" transform="translate(-556.015 -147.77)" fill="#455a64"/>
      <path id="Path_689" data-name="Path 689" d="M598.04,208.931a.987.987,0,0,1-.122-.131,3.265,3.265,0,0,1-.306-.437,12.161,12.161,0,0,1-.958-1.632,13.944,13.944,0,0,1-.118-12.115,12.136,12.136,0,0,1,.928-1.654,5,5,0,0,1,.3-.416c.07-.1.114-.14.118-.136a5.78,5.78,0,0,1-.341.6,15.308,15.308,0,0,0-.853,1.671,14.706,14.706,0,0,0,1,13.634,6.077,6.077,0,0,1,.354.617Z" transform="translate(-559.196 -164.429)" fill="#263238"/>
      <path id="Path_690" data-name="Path 690" d="M573.75,203.983a3.649,3.649,0,0,1,.516-.438,17.677,17.677,0,0,0,1.365-1.2,21.662,21.662,0,0,0,3.605-4.782,47.045,47.045,0,0,0,2.573-5.443c.284-.683.521-1.251.7-1.689a3.677,3.677,0,0,1,.28-.608,3.584,3.584,0,0,1-.2.639c-.144.411-.354,1-.634,1.719a40.572,40.572,0,0,1-2.52,5.5,20.085,20.085,0,0,1-3.693,4.782,12.947,12.947,0,0,1-1.426,1.159c-.175.131-.319.214-.416.276A.565.565,0,0,1,573.75,203.983Z" transform="translate(-547.126 -162.973)" fill="#263238"/>
      <path id="Path_691" data-name="Path 691" d="M564.717,190.56c.044,0-.2.748-.376,1.982a14.489,14.489,0,0,0-.136,2.188,15.856,15.856,0,0,0,.289,2.651,16.142,16.142,0,0,0,.766,2.555,14.439,14.439,0,0,0,.971,1.951c.639,1.068,1.151,1.654,1.116,1.68a2.3,2.3,0,0,1-.376-.4,5.228,5.228,0,0,1-.394-.5c-.149-.206-.324-.438-.486-.7a13.136,13.136,0,0,1-1.024-1.956A13.71,13.71,0,0,1,564,194.721a12.831,12.831,0,0,1,.184-2.188c.039-.311.118-.586.171-.831a5.928,5.928,0,0,1,.171-.617A2.258,2.258,0,0,1,564.717,190.56Z" transform="translate(-541.642 -163.389)" fill="#263238"/>
      <path id="Path_692" data-name="Path 692" d="M557.583,188.8c.061,0-.656,3.465-1.6,7.714s-1.75,7.679-1.829,7.666.656-3.47,1.606-7.718S557.522,188.787,557.583,188.8Z" transform="translate(-536.1 -162.399)" fill="#263238"/>
    </g>
    <g id="freepik--character-1--inject-5" transform="translate(186.217 73.654)">
      <path id="Path_693" data-name="Path 693" d="M504.142,167.648l1.457-5.075s.529-2.061.656-2.542c.162-.639-.28-.844-.551-.411-.1.166-1.238,2.258-1.238,2.258l.958-3.562c.3-1.12-.4-1.011-.608-.613s-1.505,3.793-1.505,3.793c1.221-4.419.875-4.813.525-4.887s-1.413,3.968-1.413,3.968a3.74,3.74,0,0,0-1.059-1.177c-1.063-.748-2.853-.026-2.945.477s.547.648.547.648a1.61,1.61,0,0,1,2.56,1.488,1,1,0,0,1-1.965.171c-.437-2-1.12-1.361-1.12-1.361l.652,4.415-.753,2.188" transform="translate(-445.238 -137.65)" fill="#b78876"/>
      <path id="Path_694" data-name="Path 694" d="M436.086,136.427c1.658-.437,2.682-1.033,2.682-1.68,0-1.348-4.349-2.437-9.709-2.437s-9.709,1.089-9.709,2.437c0,.648,1.006,1.234,2.656,1.671" transform="translate(-400.809 -123.984)" fill="#ff725e"/>
      <g id="Group_29" data-name="Group 29" transform="translate(19.517 8.746)" opacity="0.4">
        <path id="Path_695" data-name="Path 695" d="M436.412,136.919c1.475-.389,2.415-.914,2.376-1.492-.1-1.6-3.85-2.157-8.606-2.157s-8.6.967-8.6,2.157c0,.578.875,1.1,2.354,1.483" transform="translate(-421.58 -133.27)"/>
      </g>
      <path id="Path_696" data-name="Path 696" d="M438.924,124.236s-1.391-5.688-1.509-5.985a8.073,8.073,0,0,0-5.635-3.5h-3.216s-4.563,1.47-5.395,2.581S422,123.846,422,123.846l9.009-1.96,6.125,1.492Z" transform="translate(-402.3 -114.107)" fill="#ff725e"/>
      <path id="Path_697" data-name="Path 697" d="M438.08,113.28h1.378a2.227,2.227,0,0,1,.551,1.448c.061,1,.289,7.854.289,7.854l-4.03-.184.131-8.466-1.369.306.044-.481.363-.438Z" transform="translate(-409.628 -113.28)" fill="#ff725e"/>
      <path id="Path_698" data-name="Path 698" d="M384.283,439.71l-2.656,10.527-4.5,7.722a1.111,1.111,0,0,0,.468,1.566h0a1.116,1.116,0,0,0,1.02,0c2.017-1.089,9.433-5.137,9.582-5.92.175-.9,3.535-10.938,3.535-10.938Z" transform="translate(-376.974 -296.886)" fill="#ff725e"/>
      <g id="Group_30" data-name="Group 30" transform="translate(0.624 155.998)" opacity="0.6">
        <path id="Path_699" data-name="Path 699" d="M378.4,476.462l10.8-6.642-.122.438a1.693,1.693,0,0,1-.674.941c-.875.6-3.347,2.188-8.952,5.25a1.1,1.1,0,0,1-1.05,0Z" transform="translate(-378.4 -469.82)" fill="#fff"/>
      </g>
      <g id="Group_31" data-name="Group 31" transform="translate(9.774 151.99)" opacity="0.6">
        <path id="Path_700" data-name="Path 700" d="M399.744,460.69a.674.674,0,0,0-.411.8.643.643,0,0,0,.788.416.709.709,0,0,0,.438-.849.674.674,0,0,0-.875-.341" transform="translate(-399.312 -460.659)" fill="#fff"/>
      </g>
      <path id="Path_701" data-name="Path 701" d="M384.393,473.838a3.327,3.327,0,0,0-.691-1.068,3.466,3.466,0,0,0-1.142-.564c0-.026.153-.07.407-.039a1.71,1.71,0,0,1,.875.438,1.751,1.751,0,0,1,.529.836C384.45,473.694,384.424,473.838,384.393,473.838Z" transform="translate(-380.116 -315.136)" fill="#263238"/>
      <path id="Path_702" data-name="Path 702" d="M381.869,477.237c-.066.031-.306-.4-.8-.7a9.249,9.249,0,0,0-.984-.438,1.229,1.229,0,0,1,1.111.214C381.756,476.681,381.931,477.224,381.869,477.237Z" transform="translate(-378.721 -317.323)" fill="#263238"/>
      <path id="Path_703" data-name="Path 703" d="M387.7,470.284a11.2,11.2,0,0,0-1.164-1.173,10.9,10.9,0,0,0-1.453-.792,2.463,2.463,0,0,1,1.6.6A2.494,2.494,0,0,1,387.7,470.284Z" transform="translate(-381.533 -312.978)" fill="#263238"/>
      <path id="Path_704" data-name="Path 704" d="M390.038,464.4c-.048.057-.56-.346-1.313-.582s-1.391-.219-1.4-.289a2.131,2.131,0,0,1,1.47.061,2.161,2.161,0,0,1,1.238.809Z" transform="translate(-382.799 -310.226)" fill="#263238"/>
      <path id="Path_705" data-name="Path 705" d="M391.842,457.424a5.51,5.51,0,0,0-1.339-.639,5.314,5.314,0,0,0-1.483-.035c0-.031.14-.127.438-.2a2.45,2.45,0,0,1,2.122.508C391.776,457.249,391.864,457.407,391.842,457.424Z" transform="translate(-383.749 -306.322)" fill="#263238"/>
      <path id="Path_706" data-name="Path 706" d="M391.091,453.2a.919.919,0,0,1,.092-.4,2.874,2.874,0,0,1,.6-.949,1.247,1.247,0,0,1,.683-.438.437.437,0,0,1,.438.228.717.717,0,0,1,.035.521,1.566,1.566,0,0,1-1.715,1.033,1.82,1.82,0,0,1-1.474-1.4.643.643,0,0,1,.114-.516.438.438,0,0,1,.5-.1,1.545,1.545,0,0,1,.591.551,3.185,3.185,0,0,1,.49,1.006,1,1,0,0,1,.061.407,5.01,5.01,0,0,0-.687-1.313,1.457,1.457,0,0,0-.525-.468.236.236,0,0,0-.276.057.437.437,0,0,0-.052.341,1.623,1.623,0,0,0,1.291,1.194,1.361,1.361,0,0,0,1.47-.875.564.564,0,0,0,0-.363.245.245,0,0,0-.254-.127,1.1,1.1,0,0,0-.586.359,4.214,4.214,0,0,0-.8,1.247Z" transform="translate(-384.154 -303.315)" fill="#263238"/>
      <path id="Path_707" data-name="Path 707" d="M447.388,446.233l-.591,8.4s8.344,3.413,8.388,4.975l-16.324-.542.368-13.126Z" transform="translate(-411.783 -300.39)" fill="#ff725e"/>
      <path id="Path_708" data-name="Path 708" d="M444.9,463.782a.661.661,0,0,0-.486.744.639.639,0,0,0,.735.49.7.7,0,0,0,.508-.792.665.665,0,0,0-.818-.437" transform="translate(-414.905 -310.413)" fill="#e0e0e0"/>
      <g id="Group_32" data-name="Group 32" transform="translate(27.086 157.363)" opacity="0.6">
        <path id="Path_709" data-name="Path 709" d="M438.88,474.253l.087-1.313,15.62,1.015s.718.341.617.849Z" transform="translate(-438.88 -472.94)" fill="#fff"/>
      </g>
      <path id="Path_710" data-name="Path 710" d="M455.684,465.539c0,.079-.4.1-.805.346s-.621.573-.691.538.061-.49.551-.774S455.706,465.469,455.684,465.539Z" transform="translate(-420.394 -311.37)" fill="#263238"/>
      <path id="Path_711" data-name="Path 711" d="M460.081,467.333c0,.079-.333.2-.613.529s-.372.683-.437.678-.114-.438.245-.875S460.085,467.259,460.081,467.333Z" transform="translate(-423.102 -312.398)" fill="#263238"/>
      <path id="Path_712" data-name="Path 712" d="M463.449,470.405c-.074,0-.171-.389.048-.818s.6-.591.63-.525-.206.293-.381.652S463.527,470.4,463.449,470.405Z" transform="translate(-425.564 -313.388)" fill="#263238"/>
      <path id="Path_713" data-name="Path 713" d="M455.269,460.83c-.035.074-.4-.048-.849-.035s-.805.149-.844.079.306-.346.84-.354S455.313,460.769,455.269,460.83Z" transform="translate(-420.058 -308.591)" fill="#263238"/>
      <path id="Path_714" data-name="Path 714" d="M454.494,455.56a1.571,1.571,0,0,1-.818-.035,3.391,3.391,0,0,1-.844-.289,3.606,3.606,0,0,1-.464-.267.873.873,0,0,1-.241-.2.35.35,0,0,1-.022-.437.438.438,0,0,1,.354-.171,1.167,1.167,0,0,1,.306.052,3.252,3.252,0,0,1,.5.193,2.856,2.856,0,0,1,.735.521c.367.363.49.665.459.678s-.21-.228-.586-.534a3.309,3.309,0,0,0-.718-.437,3.39,3.39,0,0,0-.464-.162c-.171-.048-.319-.057-.368,0s0,.044,0,.1a1.094,1.094,0,0,0,.175.144,3.748,3.748,0,0,0,.437.263,4.94,4.94,0,0,0,.779.328A5.106,5.106,0,0,1,454.494,455.56Z" transform="translate(-419.195 -305.014)" fill="#263238"/>
      <path id="Path_715" data-name="Path 715" d="M457.153,454.325a1.347,1.347,0,0,1-.188-.8,2.669,2.669,0,0,1,.14-.875,2.731,2.731,0,0,1,.227-.49.665.665,0,0,1,.534-.394.376.376,0,0,1,.333.236.97.97,0,0,1,.074.306,1.749,1.749,0,0,1,0,.547,1.894,1.894,0,0,1-.376.836c-.333.411-.669.494-.674.468a3.251,3.251,0,0,0,.516-.582,1.933,1.933,0,0,0,.284-.761,1.9,1.9,0,0,0,0-.473c-.022-.175-.083-.315-.149-.3a.574.574,0,0,0-.293.258,2.912,2.912,0,0,0-.219.437,2.986,2.986,0,0,0-.184.809C457.122,454.014,457.2,454.312,457.153,454.325Z" transform="translate(-421.964 -303.669)" fill="#263238"/>
      <path id="Path_716" data-name="Path 716" d="M426.426,154.376l9.814-.438c.057-1.041-.477-7.482-.477-7.482a4.457,4.457,0,0,0,3.758-4.288c.048-3.71-.516-11.118-.516-11.118l-.066-.324c-4.292-1.842-9.267-2.008-12.969.844l-.551.438Z" transform="translate(-404.223 -122.336)" fill="#b78876"/>
      <path id="Path_717" data-name="Path 717" d="M442.848,166.484A8.619,8.619,0,0,1,438,165.11s1.146,2.669,4.848,2.336Z" transform="translate(-411.299 -142.433)" fill="#aa6550"/>
      <path id="Path_718" data-name="Path 718" d="M423.285,143.951c-.061-.026-2.546-.753-2.468,1.785a1.918,1.918,0,0,0,2.625,1.859C423.443,147.526,423.285,143.951,423.285,143.951Z" transform="translate(-401.633 -130.466)" fill="#b78876"/>
      <path id="Path_719" data-name="Path 719" d="M423.523,147.7a.66.66,0,0,1-.114.066.438.438,0,0,1-.333,0,1.085,1.085,0,0,1-.534-.963,1.443,1.443,0,0,1,.1-.639.512.512,0,0,1,.324-.35.227.227,0,0,1,.263.114c.035.07.022.123.035.127s.052-.044.031-.149a.289.289,0,0,0-.105-.158.328.328,0,0,0-.245-.057.621.621,0,0,0-.438.411,1.488,1.488,0,0,0-.131.709,1.16,1.16,0,0,0,.678,1.076.481.481,0,0,0,.4-.079A.141.141,0,0,0,423.523,147.7Z" transform="translate(-402.51 -131.509)" fill="#aa6550"/>
      <path id="Path_720" data-name="Path 720" d="M452.144,143.154a.525.525,0,0,1-.508.534.5.5,0,0,1-.547-.477.529.529,0,0,1,.508-.534.5.5,0,0,1,.547.477Z" transform="translate(-418.662 -129.814)" fill="#263238"/>
      <path id="Path_721" data-name="Path 721" d="M451.973,141.846c-.066.07-.468-.228-1.037-.228s-.989.289-1.05.219.035-.158.219-.289a1.44,1.44,0,0,1,.84-.258,1.387,1.387,0,0,1,.827.267C451.947,141.688,452,141.815,451.973,141.846Z" transform="translate(-417.974 -129.035)" fill="#263238"/>
      <path id="Path_722" data-name="Path 722" d="M439.339,143.61a.529.529,0,0,1-.512.534.507.507,0,0,1-.547-.477.534.534,0,0,1,.512-.538A.516.516,0,0,1,439.339,143.61Z" transform="translate(-411.456 -130.068)" fill="#263238"/>
      <path id="Path_723" data-name="Path 723" d="M439.163,142.086c-.066.07-.468-.228-1.037-.223s-.989.284-1.05.214.035-.153.219-.289a1.47,1.47,0,0,1,.84-.258,1.374,1.374,0,0,1,.827.267C439.137,141.932,439.22,142.055,439.163,142.086Z" transform="translate(-410.769 -129.17)" fill="#263238"/>
      <path id="Path_724" data-name="Path 724" d="M446.257,146.356a3.526,3.526,0,0,1,.928-.171c.144,0,.28-.044.306-.14a.744.744,0,0,0-.1-.438c-.136-.354-.28-.722-.437-1.107a19.9,19.9,0,0,1-.967-2.9,18.671,18.671,0,0,1,1.2,2.813c.144.389.284.761.411,1.116a.836.836,0,0,1,.079.573.359.359,0,0,1-.241.21.875.875,0,0,1-.245.035A3.987,3.987,0,0,1,446.257,146.356Z" transform="translate(-415.793 -129.209)" fill="#263238"/>
      <path id="Path_725" data-name="Path 725" d="M442.639,153.37c.092,0,.092.613.621,1.05a2.811,2.811,0,0,0,1.194.438c0,.066-.149.118-.437.127a1.549,1.549,0,0,1-1-.346,1.313,1.313,0,0,1-.481-.875C442.525,153.519,442.595,153.365,442.639,153.37Z" transform="translate(-413.85 -135.829)" fill="#263238"/>
      <path id="Path_726" data-name="Path 726" d="M438.824,137.146c-.057.153-.626.079-1.313.162s-1.208.263-1.313.123c-.039-.066.057-.21.276-.363a2.158,2.158,0,0,1,.963-.337,2.188,2.188,0,0,1,1.011.118C438.732,136.949,438.846,137.072,438.824,137.146Z" transform="translate(-410.281 -126.461)" fill="#263238"/>
      <path id="Path_727" data-name="Path 727" d="M451.7,138.046c-.1.131-.494,0-.967,0s-.875.087-.963-.048c-.039-.066,0-.193.2-.315a1.385,1.385,0,0,1,1.553.048C451.693,137.849,451.746,137.98,451.7,138.046Z" transform="translate(-417.913 -126.884)" fill="#263238"/>
      <path id="Path_728" data-name="Path 728" d="M419.523,266.5l-1.623,83.81a1.028,1.028,0,0,1-1.037,1.011l-9.761-.088a1.028,1.028,0,0,1-1.019-1.05l1.514-72.136-12.7,71.615a1.847,1.847,0,0,1-1.881,1.523l-8.186-.284a1.842,1.842,0,0,1-1.75-2.126L395.94,266.17Z" transform="translate(-380.397 -199.276)" fill="#263238"/>
      <path id="Path_729" data-name="Path 729" d="M451.006,179.2l-6.069-1.461L440.943,188.6l-11.065-9.9h0c-1.177-.875-3.207-.971-4.752-1.159h-.118c-.6-.074-.875-.158-1.251-.2-2.669,2-7.232,2.131-9.853.061,0,0-1.986.438-3.172.678a9.344,9.344,0,0,0-7.171,5.95l4.677,10.785.9,10.247-2.59,9.188a1.588,1.588,0,0,0,1.313,2.013l23.189.354.376-.188a4.292,4.292,0,0,0,.621-2.936c-1-4.375-.3-17.5-.512-21.5,4.546,4.415,9.56,8.077,13.222,5.81C447.808,195.891,451.006,179.2,451.006,179.2Z" transform="translate(-391.928 -149.312)" fill="#e0e0e0"/>
      <path id="Path_730" data-name="Path 730" d="M427.62,176.87Z" transform="translate(-405.461 -149.047)" fill="#ff725e"/>
      <path id="Path_731" data-name="Path 731" d="M425.51,137.1c.1,1.028.066,2.07.166,3.1a3.5,3.5,0,0,0,.367,1.111,1.019,1.019,0,0,0,1.934,0,3.031,3.031,0,0,0,.227-1.313,4.208,4.208,0,0,1,.14-1.348,7.344,7.344,0,0,1,.766-1.313,1.632,1.632,0,0,0,.241-1.444,7.533,7.533,0,0,0-3.841,1.212" transform="translate(-404.274 -125.996)" fill="#263238"/>
      <path id="Path_732" data-name="Path 732" d="M439.132,132.6l-.079-2.074-6.064-1.807-7.569,2.231v2.231a18.622,18.622,0,0,1,13.712-.582Z" transform="translate(-404.223 -121.964)" fill="#455a64"/>
      <path id="Path_733" data-name="Path 733" d="M435.939,130.028l.267.258,2.188,1.374a34.428,34.428,0,0,0-8.532-1.124,40.258,40.258,0,0,0-9.3,1.51l2.875-1.75h0a4.922,4.922,0,0,1,3.5-1.566l5.447-.109A4.944,4.944,0,0,1,435.939,130.028Z" transform="translate(-401.49 -121.907)" fill="#ff725e"/>
      <path id="Path_734" data-name="Path 734" d="M446.35,120.879a18.49,18.49,0,0,1-.276-2.888,19.06,19.06,0,0,1-.048-2.9,17.893,17.893,0,0,1,.276,2.888A19.076,19.076,0,0,1,446.35,120.879Z" transform="translate(-415.795 -114.298)" fill="#263238"/>
      <path id="Path_735" data-name="Path 735" d="M435,115.088a3.882,3.882,0,0,1,1.024-.3.438.438,0,0,1,.438.407v2c0,.984-.044,1.873-.074,2.516a5.022,5.022,0,0,1-.1,1.041,4.814,4.814,0,0,1-.061-1.041v-2.516c0-.486.022-.949.031-1.383a5.362,5.362,0,0,1,.022-.6.276.276,0,0,0-.258-.258A5.993,5.993,0,0,1,435,115.088Z" transform="translate(-409.612 -114.129)" fill="#263238"/>
      <path id="Path_736" data-name="Path 736" d="M439.346,131.248s-.254-.105-.722-.271c-.232-.087-.521-.184-.844-.337a2.4,2.4,0,0,1-.963-.748c-.293-.376-.346-.9-.669-1.273a2,2,0,0,0-1.474-.416c-1.168-.048-2.459-.061-3.807-.022s-2.625.109-3.807.2a2.315,2.315,0,0,0-1.488.494,4.13,4.13,0,0,0-.437.578l-.21.293-.109.136a.53.53,0,0,1-.158.118c-.809.394-1.474.643-1.93.849a6.131,6.131,0,0,1-.709.3c0-.013.052-.048.166-.114s.284-.158.5-.267c.438-.228,1.111-.512,1.89-.91a.474.474,0,0,0,.109-.079l.1-.136c.066-.1.136-.193.2-.293a4.378,4.378,0,0,1,.468-.613,2.49,2.49,0,0,1,1.6-.569c1.168-.1,2.459-.184,3.815-.223s2.651,0,3.824.044a5.8,5.8,0,0,1,.875.079,1.208,1.208,0,0,1,.739.438c.359.438.4.963.656,1.313a2.306,2.306,0,0,0,.875.731c.311.158.591.267.823.368s.4.184.516.245S439.35,131.239,439.346,131.248Z" transform="translate(-402.31 -121.522)" fill="#263238"/>
      <path id="Path_737" data-name="Path 737" d="M438.36,134.323a1.165,1.165,0,0,1-.162-.079,3.7,3.7,0,0,0-.437-.232,8.839,8.839,0,0,0-1.785-.543,21.877,21.877,0,0,0-6.152-.3c-1.216.088-2.367.14-3.4.276a26.047,26.047,0,0,0-2.73.525c-.381.1-.726.2-1.024.3a1.7,1.7,0,0,0-.691.359.731.731,0,0,0-.227.6.289.289,0,0,1-.039-.179.717.717,0,0,1,.2-.481,1.775,1.775,0,0,1,.713-.438c.3-.114.643-.227,1.028-.333a25.111,25.111,0,0,1,2.743-.578c1.046-.149,2.188-.21,3.413-.3a20.275,20.275,0,0,1,6.2.368,7.54,7.54,0,0,1,1.785.621,2.291,2.291,0,0,1,.438.271A.74.74,0,0,1,438.36,134.323Z" transform="translate(-402.134 -124.278)" fill="#263238"/>
      <path id="Path_738" data-name="Path 738" d="M438.96,113.658a3.788,3.788,0,0,1-.564.044l-1.369.035a12.127,12.127,0,0,0-1.356.044.656.656,0,0,0-.459.276.231.231,0,0,1,.07-.136.665.665,0,0,1,.372-.2,9.488,9.488,0,0,1,1.374-.07h1.365A3.212,3.212,0,0,1,438.96,113.658Z" transform="translate(-409.73 -113.483)" fill="#fafafa"/>
      <path id="Path_739" data-name="Path 739" d="M436.457,128.929a1.312,1.312,0,0,1-.289.026l-.779.044c-.656.035-1.566.087-2.568.171l-1.413.131a6.663,6.663,0,0,0-1.133.166,1.147,1.147,0,0,0-.617.438,1.063,1.063,0,0,0-.118.258.587.587,0,0,1,.088-.276,1.155,1.155,0,0,1,.626-.473,6.081,6.081,0,0,1,1.146-.188c.438-.048.914-.1,1.413-.14,1.006-.083,1.916-.127,2.573-.144h.783A2.183,2.183,0,0,1,436.457,128.929Z" transform="translate(-406.541 -122.082)" fill="#fafafa"/>
      <path id="Path_740" data-name="Path 740" d="M438.4,120.4a1.052,1.052,0,0,1,0-.206c0-.184.026-.368.039-.56.031-.468.07-1.12.092-1.838s0-1.374,0-1.846v-.56a.591.591,0,0,1,0-.206,1.4,1.4,0,0,1,.026.206c0,.131.022.324.031.56.022.473.031,1.124,0,1.846s-.07,1.374-.118,1.846a2.915,2.915,0,0,1-.066.556A.655.655,0,0,1,438.4,120.4Z" transform="translate(-411.523 -114.349)" fill="#fafafa"/>
      <path id="Path_741" data-name="Path 741" d="M423.238,132.94a1.245,1.245,0,0,1-.171.092l-.481.223-1.606.691a6.693,6.693,0,0,0-.875.4,1.107,1.107,0,0,0-.494.56.8.8,0,0,0,0,.5,1.359,1.359,0,0,0,.088.171.394.394,0,0,1-.118-.158.805.805,0,0,1,0-.538,1.143,1.143,0,0,1,.508-.608,5.8,5.8,0,0,1,.875-.416l1.615-.669.494-.192A1.145,1.145,0,0,1,423.238,132.94Z" transform="translate(-400.913 -124.338)" fill="#fafafa"/>
      <path id="Path_742" data-name="Path 742" d="M425.51,174.226l.538-3.706,5.049,1.851,1.426,2.511.884-2.756,2.77-.954,1.186,2.468-2.034,2.875-3.811.77Z" transform="translate(-404.274 -145.476)" fill="#e0e0e0"/>
      <path id="Path_743" data-name="Path 743" d="M432.611,177.861a1.153,1.153,0,0,1-.188-.153,6.546,6.546,0,0,1-.464-.5,7.464,7.464,0,0,1-1.221-2.1h.188l-1.168,2.94c-.2.5-.4.989-.586,1.453l-.061.153-.118-.114c-1.019-.984-1.9-1.851-2.52-2.472l-.722-.735a1.36,1.36,0,0,1-.241-.284,1.287,1.287,0,0,1,.293.232l.766.687c.648.6,1.549,1.435,2.577,2.411l-.179.039c.184-.464.381-.949.582-1.453l1.194-2.931.1-.241.087.245a8.218,8.218,0,0,0,1.125,2.1C432.4,177.6,432.629,177.844,432.611,177.861Z" transform="translate(-404.274 -147.877)" fill="#263238"/>
      <path id="Path_744" data-name="Path 744" d="M446.722,175.721a4,4,0,0,1-.591.814,8.088,8.088,0,0,1-1.934,1.7l-.114.066-.044-.122c-.166-.438-.359-.936-.56-1.439-.3-.757-.586-1.474-.809-2.113h.2c-.166.836-.372,1.523-.5,2a4.726,4.726,0,0,1-.219.761,3.228,3.228,0,0,1,.1-.788c.092-.494.271-1.186.416-2.013l.066-.372.131.354c.232.63.525,1.339.827,2.1.206.508.394,1,.551,1.453l-.157-.057a9.4,9.4,0,0,0,1.947-1.6A7.7,7.7,0,0,1,446.722,175.721Z" transform="translate(-413.633 -147.557)" fill="#263238"/>
      <path id="Path_745" data-name="Path 745" d="M443.607,219.318a2.3,2.3,0,0,1,.022-.385q.048-.407.118-1.1c.066-.477.1-1.068.149-1.75q.039-.512.079-1.089c0-.389.031-.8.048-1.229.079-1.72.074-3.767.035-6.042s-.184-4.778-.363-7.4c-.381-5.25-.9-9.976-1.286-13.4-.193-1.7-.35-3.063-.464-4.056q-.074-.7-.118-1.1a2.821,2.821,0,0,1-.026-.385,1.938,1.938,0,0,1,.074.381c.039.271.092.634.158,1.1.136.954.324,2.336.538,4.043.438,3.422.971,8.156,1.352,13.4.179,2.625.3,5.132.346,7.412s0,4.332-.083,6.055c-.022.438-.044.84-.066,1.229s-.066.748-.1,1.094c-.061.683-.109,1.269-.188,1.75l-.157,1.1A3.577,3.577,0,0,1,443.607,219.318Z" transform="translate(-413.436 -151.584)" fill="#263238"/>
      <path id="Path_746" data-name="Path 746" d="M435.573,178.61l1.146.6-.214,1.93-1.785-.376Z" transform="translate(-409.454 -150.026)" fill="#ff725e"/>
      <g id="Group_33" data-name="Group 33" transform="translate(25.266 28.584)" opacity="0.4">
        <path id="Path_747" data-name="Path 747" d="M435.573,178.61l1.146.6-.214,1.93-1.785-.376Z" transform="translate(-434.72 -178.61)"/>
      </g>
      <path id="Path_748" data-name="Path 748" d="M442.68,178.721l.866-.761.8,2.017-1.138.547Z" transform="translate(-413.931 -149.66)" fill="#ff725e"/>
      <path id="Path_749" data-name="Path 749" d="M439.094,185.308l-.534,22.83,3.859,3.815,1.864-5.067-3.7-21.7Z" transform="translate(-411.614 -153.727)" fill="#ff725e"/>
      <path id="Path_750" data-name="Path 750" d="M438.624,178.135c.263-.031.626-.1.91-.162a.639.639,0,0,1,.691.319l.486.9a.652.652,0,0,1,.066.438l-.2,1.006a.635.635,0,0,1-.494.5l-1.1.223a.634.634,0,0,1-.691-.337l-.551-1.085a.622.622,0,0,1,0-.543l.381-.875A.639.639,0,0,1,438.624,178.135Z" transform="translate(-411.118 -149.66)" fill="#ff725e"/>
      <path id="Path_751" data-name="Path 751" d="M440.721,178.92a2.4,2.4,0,0,1-.293.363c-.188.219-.437.516-.753.836l-.774.823a2.6,2.6,0,0,1-.341.319,2.1,2.1,0,0,1,.289-.363c.193-.219.438-.516.757-.84s.573-.613.774-.818a2.592,2.592,0,0,1,.341-.319Z" transform="translate(-411.614 -150.2)" fill="#263238"/>
      <path id="Path_752" data-name="Path 752" d="M439.638,180.088a5.354,5.354,0,0,1-1-.958A5.35,5.35,0,0,1,439.638,180.088Z" transform="translate(-411.659 -150.318)" fill="#263238"/>
      <path id="Path_753" data-name="Path 753" d="M443.7,181.364a12.406,12.406,0,0,1,.271-1.313,1.286,1.286,0,0,0-.276-.875.739.739,0,0,1-.131-.376,1.846,1.846,0,0,0,.188.341,4.174,4.174,0,0,1,.223.372.835.835,0,0,1,.087.534c-.074.376-.171.691-.236.928A1.532,1.532,0,0,1,443.7,181.364Z" transform="translate(-414.426 -150.133)" fill="#263238"/>
      <g id="Group_34" data-name="Group 34" transform="translate(16.2 51.522)" opacity="0.3">
        <path id="Path_754" data-name="Path 754" d="M414.1,239.74a4.375,4.375,0,0,0,3.811,1.094,11.338,11.338,0,0,1,2.844-.652c1.072.07,1.956.818,2.931,1.26a8.826,8.826,0,0,0,5.88.048,4.422,4.422,0,0,0,2.389-1.278,4.245,4.245,0,0,0,.735-1.986,20.43,20.43,0,0,0,.289-3.938,3.655,3.655,0,0,0-.634-2.35,2.717,2.717,0,0,0-1.75-.875,6.919,6.919,0,0,0-2.013.114A33.253,33.253,0,0,0,414,237.417" transform="translate(-414 -231.036)"/>
      </g>
      <path id="Path_755" data-name="Path 755" d="M408.344,213.113s-12.251,5.482-13.507,5.758c-4.139.906-8.873-3-7.556-7.46.486-1.658,7.084-19.991,7.084-19.991l6.279,8.676-2.673,8.873,6.952-.464Z" transform="translate(-382.645 -157.231)" fill="#e0e0e0"/>
      <path id="Path_756" data-name="Path 756" d="M418.237,219.711a2.487,2.487,0,0,1-.486.066l-1.343.114c-1.138.092-2.735.2-4.555.315H411.7l.044-.149c.136-.438.271-.906.411-1.374.621-2.074,1.194-3.938,1.619-5.3.206-.643.381-1.181.512-1.6a3.448,3.448,0,0,1,.219-.578,3.507,3.507,0,0,1-.136.6c-.118.438-.267.967-.438,1.619-.385,1.365-.936,3.242-1.553,5.316-.144.473-.28.932-.438,1.374l-.109-.136c1.82-.109,3.417-.193,4.559-.241l1.348-.053A2.246,2.246,0,0,1,418.237,219.711Z" transform="translate(-396.506 -168.362)" fill="#263238"/>
      <path id="Path_757" data-name="Path 757" d="M417.016,242.618c.022.057-2.669,1.221-6.012,2.595s-6.055,2.45-6.095,2.385,2.669-1.221,6.012-2.6S416.994,242.565,417.016,242.618Z" transform="translate(-392.686 -186.027)" fill="#263238"/>
      <path id="Path_758" data-name="Path 758" d="M427.942,222.752l-.958-4.686a.6.6,0,0,1,.6-.726l12.185.057a.608.608,0,0,1,.6.674l-1.26,10.785a.836.836,0,0,1-.84.744l-7.946-.061a.844.844,0,0,1-.809-.634Z" transform="translate(-405.096 -171.81)" fill="#455a64"/>
      <path id="Path_759" data-name="Path 759" d="M426.74,224.05h0a1.273,1.273,0,0,1,1.194.814,2.848,2.848,0,0,0,.818,1.313,2.924,2.924,0,0,0,2.188.324c.556-.263,2.721-2.227,3.1-2.008s.7.709.324,1.142-2.393,1.75-2.013,2.188,4.625-1.479,5.277-1.313,1.033.569.652.831-3.264,1.348-3.426,1.728c0,0,4.354-1.142,4.515-.875s.438.709,0,.875-4.187,1.142-4.515,1.313a7.952,7.952,0,0,1-1.676.486c-.118,0-.971.289-1.75.556a3.837,3.837,0,0,1-2.7-.07l-.438-.179a1.724,1.724,0,0,1-1.072-1.7l.074-1.505-.473-1.225Z" transform="translate(-404.966 -175.584)" fill="#b78876"/>
      <path id="Path_760" data-name="Path 760" d="M442.325,220.878a.438.438,0,1,1-.437-.438A.438.438,0,0,1,442.325,220.878Z" transform="translate(-413.239 -173.554)" fill="#fafafa"/>
      <rect id="Rectangle_30" data-name="Rectangle 30" width="4.988" height="1.614" transform="translate(32.323 39.811)" fill="#263238"/>
      <path id="Path_761" data-name="Path 761" d="M416.839,270.867l-5.3-.131.249-1.606,5.233.206Z" transform="translate(-396.416 -200.94)" fill="#455a64"/>
      <path id="Path_762" data-name="Path 762" d="M440.16,271.006l-13.31-.1.175-1.47,13.122.035Z" transform="translate(-405.027 -201.115)" fill="#455a64"/>
      <path id="Path_763" data-name="Path 763" d="M438.938,268.571v1.772a.486.486,0,0,0,.438.521h3.667a.486.486,0,0,0,.438-.521v-1.772a.486.486,0,0,0-.438-.521h-3.667A.486.486,0,0,0,438.938,268.571Zm3.964,1.645h-3.4v-1.5h3.4Z" transform="translate(-411.826 -200.333)" fill="#fafafa"/>
      <path id="Path_764" data-name="Path 764" d="M459.88,269.488v1.5l2.809.052.039-1.6Z" transform="translate(-423.606 -201.115)" fill="#455a64"/>
      <path id="Path_765" data-name="Path 765" d="M396.18,352.688a1.37,1.37,0,0,1,.022-.2l.087-.573c.083-.521.206-1.26.359-2.214.324-1.934.788-4.708,1.356-8.134,1.146-6.878,2.726-16.359,4.472-26.83s3.264-19.978,4.349-26.856c.534-3.43.967-6.213,1.269-8.147.153-.954.267-1.7.35-2.214.044-.245.074-.438.1-.573a1.938,1.938,0,0,1,.039-.2,1.605,1.605,0,0,1,0,.2,5.4,5.4,0,0,1-.074.582c-.07.516-.171,1.264-.306,2.218-.267,1.93-.683,4.717-1.2,8.156-1.041,6.887-2.551,16.386-4.283,26.869s-3.343,19.965-4.533,26.821c-.6,3.421-1.089,6.2-1.431,8.121-.171.949-.306,1.693-.4,2.188-.044.245-.083.438-.109.573A1.086,1.086,0,0,1,396.18,352.688Z" transform="translate(-387.777 -205.226)" fill="#455a64"/>
      <path id="Path_766" data-name="Path 766" d="M453.346,353.063c-.066,0,.048-17.064.245-38.092s.411-38.092.473-38.092-.048,17.064-.245,38.1S453.407,353.063,453.346,353.063Z" transform="translate(-419.92 -205.3)" fill="#455a64"/>
      <path id="Path_767" data-name="Path 767" d="M448.088,451.534c0,.061-2.66.114-5.946.114s-5.942-.052-5.942-.114,2.66-.114,5.942-.114S448.088,451.468,448.088,451.534Z" transform="translate(-410.287 -303.473)" fill="#455a64"/>
      <path id="Path_768" data-name="Path 768" d="M395.808,450.544a2.118,2.118,0,0,1-.477.044l-1.313.044-4.292.105c-1.676.035-3.194.048-4.292.039-.551,0-.993,0-1.313-.026a2.139,2.139,0,0,1-.481-.044,1.935,1.935,0,0,1,.477-.048l1.313-.044,4.288-.1c1.676-.035,3.194-.048,4.292-.035.551,0,.993,0,1.313.026A1.838,1.838,0,0,1,395.808,450.544Z" transform="translate(-380.723 -302.937)" fill="#455a64"/>
      <path id="Path_769" data-name="Path 769" d="M488.557,207.035a21.1,21.1,0,0,1,0-4.375,21.09,21.09,0,0,1,0,4.375Z" transform="translate(-439.664 -163.553)" fill="#263238"/>
      <path id="Path_770" data-name="Path 770" d="M490.2,207.3a10.094,10.094,0,0,1-.984-2.271,9.984,9.984,0,0,1-.613-2.4,20.375,20.375,0,0,1,.827,2.323A20.914,20.914,0,0,1,490.2,207.3Z" transform="translate(-439.76 -163.536)" fill="#263238"/>
    </g>
    <g id="freepik--Plant--inject-5" transform="translate(43.802 147.918)">
      <path id="Path_771" data-name="Path 771" d="M73.312,357.365a5.332,5.332,0,0,0-1.615-1.356,3.342,3.342,0,0,1-1.453-1.75,1.384,1.384,0,0,1,1.059-1.75c.779-.039,1.282.779,1.623,1.474.6,1.229,1.466,2.686,2.065,3.916" transform="translate(-62.01 -322.101)" fill="#ff725e"/>
      <g id="Group_35" data-name="Group 35" transform="translate(8.191 30.406)" opacity="0.4">
        <path id="Path_772" data-name="Path 772" d="M73.312,357.365a5.332,5.332,0,0,0-1.615-1.356,3.342,3.342,0,0,1-1.453-1.75,1.384,1.384,0,0,1,1.059-1.75c.779-.039,1.282.779,1.623,1.474.6,1.229,1.466,2.686,2.065,3.916" transform="translate(-70.202 -352.507)"/>
      </g>
      <path id="Path_773" data-name="Path 773" d="M60.414,361.552a15.263,15.263,0,0,0-6.69-.354c-1.037.232-2.161.875-2.245,1.947a2.118,2.118,0,0,0,.993,1.794c1.457,1.015,3.47.669,5.08-.079s3.4-2.061,4.839-2.844" transform="translate(-51.48 -326.857)" fill="#ff725e"/>
      <g id="Group_36" data-name="Group 36" transform="translate(0 34.106)" opacity="0.4">
        <path id="Path_774" data-name="Path 774" d="M60.414,361.552a15.263,15.263,0,0,0-6.69-.354c-1.037.232-2.161.875-2.245,1.947a2.118,2.118,0,0,0,.993,1.794c1.457,1.015,3.47.669,5.08-.079s3.4-2.061,4.839-2.844" transform="translate(-51.48 -360.963)"/>
      </g>
      <path id="Path_775" data-name="Path 775" d="M79.866,369.241a15.069,15.069,0,0,0-6.125.941,4.506,4.506,0,0,0-2.266,1.566,3.084,3.084,0,0,0,.678,3.85,4.257,4.257,0,0,0,4.017.691,7,7,0,0,0,3.343-2.529,19.587,19.587,0,0,0,2.28-3.382" transform="translate(-62.496 -331.5)" fill="#ff725e"/>
      <g id="Group_37" data-name="Group 37" transform="translate(8.569 37.718)" opacity="0.4">
        <path id="Path_776" data-name="Path 776" d="M79.866,369.241a15.069,15.069,0,0,0-6.125.941,4.506,4.506,0,0,0-2.266,1.566,3.084,3.084,0,0,0,.678,3.85,4.257,4.257,0,0,0,4.017.691,7,7,0,0,0,3.343-2.529,19.587,19.587,0,0,0,2.28-3.382" transform="translate(-71.065 -369.218)"/>
      </g>
      <path id="Path_777" data-name="Path 777" d="M101.876,370.452a9.189,9.189,0,0,1-1.645-3.627,2.9,2.9,0,0,1-.057-1.177,1.251,1.251,0,0,1,.687-.914,1.273,1.273,0,0,1,1.313.311,3.356,3.356,0,0,1,.739,1.186,41.033,41.033,0,0,1,1.969,7.552" transform="translate(-78.849 -328.94)" fill="#ff725e"/>
      <g id="Group_38" data-name="Group 38" transform="translate(21.29 35.727)" opacity="0.4">
        <path id="Path_778" data-name="Path 778" d="M101.876,370.452a9.189,9.189,0,0,1-1.645-3.627,2.9,2.9,0,0,1-.057-1.177,1.251,1.251,0,0,1,.687-.914,1.273,1.273,0,0,1,1.313.311,3.356,3.356,0,0,1,.739,1.186,41.033,41.033,0,0,1,1.969,7.552" transform="translate(-100.139 -364.667)"/>
      </g>
      <path id="Path_779" data-name="Path 779" d="M95.6,382.189a9.538,9.538,0,0,0-7.709,2.188,4.533,4.533,0,0,0-1.387,1.859,2.293,2.293,0,0,0,.3,2.218,2.6,2.6,0,0,0,2.77.538,8.734,8.734,0,0,0,2.94-1.969l4.218-3.767" transform="translate(-71.091 -338.73)" fill="#ff725e"/>
      <g id="Group_39" data-name="Group 39" transform="translate(15.255 43.342)" opacity="0.4">
        <path id="Path_780" data-name="Path 780" d="M95.6,382.189a9.538,9.538,0,0,0-7.709,2.188,4.533,4.533,0,0,0-1.387,1.859,2.293,2.293,0,0,0,.3,2.218,2.6,2.6,0,0,0,2.77.538,8.734,8.734,0,0,0,2.94-1.969l4.218-3.767" transform="translate(-86.346 -382.072)"/>
      </g>
      <path id="Path_781" data-name="Path 781" d="M107.706,344.825a12.251,12.251,0,0,1,5.005-8.492,6.153,6.153,0,0,1,2.861-1.216,3.1,3.1,0,0,1,2.8,1.1,3.607,3.607,0,0,1,0,3.667,8.694,8.694,0,0,1-4.6,4.047,19.752,19.752,0,0,1-6.125,1.225" transform="translate(-83.068 -312.304)" fill="#ff725e"/>
      <path id="Path_782" data-name="Path 782" d="M103.18,330.323a13.386,13.386,0,0,1,2.783-5.793,6.563,6.563,0,0,1,1.431-1.479,2.625,2.625,0,0,1,1.956-.473,2.363,2.363,0,0,1,1.75,2.048,3.54,3.54,0,0,1-.9,2.625,7.233,7.233,0,0,1-2.284,1.693,16.424,16.424,0,0,1-4.62,1.566" transform="translate(-80.56 -305.249)" fill="#ff725e"/>
      <path id="Path_783" data-name="Path 783" d="M100.823,314.752a10.592,10.592,0,0,1,3.242-7.687c.372-.315.875-.617,1.313-.376a1.168,1.168,0,0,1,.438.643,5.53,5.53,0,0,1-5.005,7.438" transform="translate(-79.226 -296.28)" fill="#ff725e"/>
      <path id="Path_784" data-name="Path 784" d="M93.5,309.885a10.837,10.837,0,0,0-2.8-6.283,1.752,1.752,0,0,0-1.343-.844c-.757.035-1.173.91-1.251,1.663a5.15,5.15,0,0,0,1.313,3.938,5.584,5.584,0,0,0,4.073,1.523" transform="translate(-72.071 -294.118)" fill="#ff725e"/>
      <path id="Path_785" data-name="Path 785" d="M100.353,292.274A7.8,7.8,0,0,1,100.09,285a4.305,4.305,0,0,1,1.553-1.628,2.6,2.6,0,0,1,2.188-.214,2.837,2.837,0,0,1,1.444,3.26,6.4,6.4,0,0,1-2.144,3.163,20,20,0,0,0-2.783,2.691" transform="translate(-78.384 -283.012)" fill="#ff725e"/>
      <path id="Path_786" data-name="Path 786" d="M88.9,329.122a16.907,16.907,0,0,0-2.463-2.966,6.646,6.646,0,0,0-3.4-1.719,4.174,4.174,0,0,0-3.562,1.089,3.063,3.063,0,0,0-.569,3.553,4.239,4.239,0,0,0,2.385,1.715,11.222,11.222,0,0,0,7.744-.088" transform="translate(-66.719 -306.28)" fill="#ff725e"/>
      <path id="Path_787" data-name="Path 787" d="M94.333,350.428A8.313,8.313,0,0,0,90.57,347.5a6.126,6.126,0,0,0-4.708.166,2.152,2.152,0,0,0-1.383,1.75c0,.788.731,1.418,1.439,1.811a9.74,9.74,0,0,0,8.523.389" transform="translate(-70.041 -319.063)" fill="#ff725e"/>
      <path id="Path_788" data-name="Path 788" d="M115.28,369.775a7.819,7.819,0,0,1,.954-5.714,9,9,0,0,1,4.69-3.793,4.814,4.814,0,0,1,2.315-.315,2.5,2.5,0,0,1,1.881,1.264c.591,1.2-.206,2.691-1.313,3.426a16,16,0,0,1-3.623,1.851c-1.969.652-3.758,2.905-4.528,4.5" transform="translate(-87.265 -326.272)" fill="#ff725e"/>
      <path id="Path_789" data-name="Path 789" d="M120.633,389.792a12.452,12.452,0,0,1,2.008-7.154,6.8,6.8,0,0,1,2.905-2.8,3.419,3.419,0,0,1,3.8.564c1.2,1.269.875,3.439-.254,4.782A11.872,11.872,0,0,1,124.715,388a8.277,8.277,0,0,0-3.789,3.032" transform="translate(-90.373 -337.294)" fill="#ff725e"/>
      <path id="Path_790" data-name="Path 790" d="M123.78,407.887a18.813,18.813,0,0,1,2.682-6.309,6.858,6.858,0,0,1,5.876-3,3.113,3.113,0,0,1,2.625,1.645c.538,1.243-.158,2.678-1.05,3.693a9.945,9.945,0,0,1-4.73,2.993c-1.019.289-2.087.438-3.063.788a3.617,3.617,0,0,0-2.28,2.065" transform="translate(-92.146 -348.003)" fill="#ff725e"/>
      <path id="Path_791" data-name="Path 791" d="M106.637,418.456c-.713-2.341-2.844-3.938-4.988-5.124a8.889,8.889,0,0,0-5.215-1.4c-1.816.228-3.579,1.75-3.461,3.579s2.039,3.133,3.881,3.4,3.719-.158,5.579-.118,3.627.569,4.4,2.262" transform="translate(-74.815 -355.505)" fill="#ff725e"/>
      <path id="Path_792" data-name="Path 792" d="M110.879,402.17a7.438,7.438,0,0,0-5.25-4.813,2.9,2.9,0,0,0-2.1.14,2.223,2.223,0,0,0-.8,2.7,3.64,3.64,0,0,0,2.245,1.943,10.652,10.652,0,0,0,3.023.438,10.935,10.935,0,0,1,3.023.407" transform="translate(-80.208 -347.252)" fill="#ff725e"/>
      <path id="Path_793" data-name="Path 793" d="M84.323,362.745a4.139,4.139,0,0,1-1.142-1.868.941.941,0,0,1,.026-.691.713.713,0,0,1,.827-.245,1.965,1.965,0,0,1,.735.551,22.247,22.247,0,0,1,2.476,3.632" transform="translate(-69.281 -326.256)" fill="#ff725e"/>
      <path id="Path_794" data-name="Path 794" d="M103.412,286.88a1.158,1.158,0,0,1-.066.162c-.053.114-.127.267-.214.459l-.354.744c-.123.3-.267.648-.438,1.037a28.255,28.255,0,0,0-.954,2.927,30.145,30.145,0,0,0-.753,4,39.168,39.168,0,0,0,.258,10.575,89.049,89.049,0,0,0,3.163,12.6c1.383,4.4,2.831,8.563,3.863,12.439a92.986,92.986,0,0,1,2.188,10.413c.438,3,.656,5.443.77,7.132.053.844.087,1.5.1,1.947v.508a1.078,1.078,0,0,1,0,.175,1.136,1.136,0,0,1,0-.175l-.039-.5c-.035-.459-.079-1.111-.14-1.943-.14-1.689-.372-4.126-.84-7.114a96.608,96.608,0,0,0-2.214-10.387c-1.041-3.859-2.5-8.016-3.881-12.426a87.58,87.58,0,0,1-3.15-12.636,38.827,38.827,0,0,1-.214-10.623,30.679,30.679,0,0,1,.788-4.017,27.872,27.872,0,0,1,1-2.923c.166-.389.315-.735.438-1.033s.271-.534.372-.739.179-.337.236-.437a.8.8,0,0,1,.083-.162Z" transform="translate(-78.902 -285.188)" fill="#263238"/>
      <path id="Path_795" data-name="Path 795" d="M66.2,361.438a1.347,1.347,0,0,1,.319,0c.21.022.516.039.91.1a26.218,26.218,0,0,1,3.3.661,29.407,29.407,0,0,1,9.984,4.782,28.055,28.055,0,0,1,4.507,4.143,25.615,25.615,0,0,1,2.888,4.082A26.711,26.711,0,0,1,89.6,378.23c.162.363.263.656.337.853a1.427,1.427,0,0,1,.1.3,1.773,1.773,0,0,1-.14-.284c-.092-.188-.206-.477-.376-.836a31.976,31.976,0,0,0-1.549-2.975,26.34,26.34,0,0,0-2.905-4.025,28.476,28.476,0,0,0-4.485-4.1,30.282,30.282,0,0,0-9.888-4.813,31.366,31.366,0,0,0-3.268-.709c-.389-.074-.7-.109-.9-.144a2.859,2.859,0,0,1-.324-.061Z" transform="translate(-59.759 -327.119)" fill="#263238"/>
      <path id="Path_796" data-name="Path 796" d="M114.551,343.61a12.389,12.389,0,0,1-1.142.792,22.223,22.223,0,0,0-2.625,2.1,22.54,22.54,0,0,0-2.249,2.468,12.253,12.253,0,0,1-.875,1.094,1.247,1.247,0,0,1,.171-.332c.122-.21.311-.5.56-.875a17.5,17.5,0,0,1,4.892-4.6c.368-.227.674-.4.875-.508a1.313,1.313,0,0,1,.394-.131Z" transform="translate(-83.079 -317.096)" fill="#263238"/>
      <path id="Path_797" data-name="Path 797" d="M122.261,365.73c0,.039-.573.236-1.422.739a9.188,9.188,0,0,0-4.327,6.086c-.2.967-.2,1.588-.236,1.588a1.526,1.526,0,0,1-.031-.437,7.745,7.745,0,0,1,.105-1.181,8.7,8.7,0,0,1,4.41-6.2,7.881,7.881,0,0,1,1.063-.481A1.486,1.486,0,0,1,122.261,365.73Z" transform="translate(-87.906 -329.538)" fill="#263238"/>
      <path id="Path_798" data-name="Path 798" d="M126.144,386.54c0,.035-.438.324-1.138.906a11.109,11.109,0,0,0-3.57,5.859c-.2.875-.241,1.426-.284,1.422a1.373,1.373,0,0,1,0-.394,6.883,6.883,0,0,1,.131-1.063,10.212,10.212,0,0,1,1.286-3.3,10.032,10.032,0,0,1,2.341-2.647,7.464,7.464,0,0,1,.875-.608A1.312,1.312,0,0,1,126.144,386.54Z" transform="translate(-90.66 -341.243)" fill="#263238"/>
      <path id="Path_799" data-name="Path 799" d="M130.486,406.63c0,.039-.5.254-1.278.7a12.8,12.8,0,0,0-4.813,4.957c-.438.792-.626,1.313-.665,1.313a1.343,1.343,0,0,1,.1-.381,8.8,8.8,0,0,1,.438-.993,11.411,11.411,0,0,1,4.878-5.027,7.691,7.691,0,0,1,.98-.438A1.312,1.312,0,0,1,130.486,406.63Z" transform="translate(-92.118 -352.543)" fill="#263238"/>
      <path id="Path_800" data-name="Path 800" d="M107.85,401.454a2.946,2.946,0,0,1,1.1,0,6.729,6.729,0,0,1,4.48,2.651,3.2,3.2,0,0,1,.543.958c-.035,0-.241-.346-.665-.875a7.565,7.565,0,0,0-4.375-2.59C108.27,401.5,107.85,401.493,107.85,401.454Z" transform="translate(-83.186 -349.602)" fill="#263238"/>
      <path id="Path_801" data-name="Path 801" d="M105.45,419.495a.926.926,0,0,1,.328-.227,2.087,2.087,0,0,1,1.076-.149,4.7,4.7,0,0,1,1.527.5c.538.258,1.129.547,1.728.875a11.938,11.938,0,0,1,2.844,2.1,6.641,6.641,0,0,1,.683.836,1.312,1.312,0,0,1,.193.341c-.035.026-.341-.438-.989-1.063A13.742,13.742,0,0,0,110,420.69c-.6-.333-1.181-.626-1.711-.875a4.949,4.949,0,0,0-1.457-.529A2.328,2.328,0,0,0,105.45,419.495Z" transform="translate(-81.836 -359.558)" fill="#263238"/>
      <path id="Path_802" data-name="Path 802" d="M100.262,383.984a11.982,11.982,0,0,0-6.572,3.343,3.473,3.473,0,0,1,.722-.844,9.385,9.385,0,0,1,4.743-2.42A3.588,3.588,0,0,1,100.262,383.984Z" transform="translate(-75.222 -339.798)" fill="#263238"/>
      <path id="Path_803" data-name="Path 803" d="M106.076,376.194a3.032,3.032,0,0,1-.481-.753,13.126,13.126,0,0,1-.844-1.973,12.966,12.966,0,0,1-.516-2.083,2.849,2.849,0,0,1-.066-.875c.07,0,.267,1.313.8,2.9S106.137,376.159,106.076,376.194Z" transform="translate(-81.11 -332.227)" fill="#263238"/>
      <path id="Path_804" data-name="Path 804" d="M98.8,354.236a23.459,23.459,0,0,0-3.1-1.19,22.678,22.678,0,0,0-3.282-.5,3,3,0,0,1,.98-.066,10.266,10.266,0,0,1,2.358.346,10.464,10.464,0,0,1,2.214.875A3.412,3.412,0,0,1,98.8,354.236Z" transform="translate(-74.507 -322.078)" fill="#263238"/>
      <path id="Path_805" data-name="Path 805" d="M109.193,327.52a7.817,7.817,0,0,1-.958.735c-.6.438-1.4,1.076-2.245,1.838s-1.544,1.505-2.043,2.056a7.434,7.434,0,0,1-.827.875,5.253,5.253,0,0,1,.7-.984,19.581,19.581,0,0,1,4.318-3.938A5.5,5.5,0,0,1,109.193,327.52Z" transform="translate(-80.526 -308.046)" fill="#263238"/>
      <path id="Path_806" data-name="Path 806" d="M93.348,334.843a10.632,10.632,0,0,1-1.05-.582,17.311,17.311,0,0,0-5.3-1.894,7.931,7.931,0,0,1-1.155-.223,4.491,4.491,0,0,1,1.181.066,13.643,13.643,0,0,1,5.355,1.912A4.413,4.413,0,0,1,93.348,334.843Z" transform="translate(-70.806 -310.639)" fill="#263238"/>
      <path id="Path_807" data-name="Path 807" d="M104.267,313.4c.053.048-.914,1.028-1.912,2.385s-1.654,2.568-1.715,2.533a3.159,3.159,0,0,1,.368-.827,14.612,14.612,0,0,1,1.168-1.838,15.174,15.174,0,0,1,1.413-1.663,3.088,3.088,0,0,1,.678-.591Z" transform="translate(-79.131 -300.104)" fill="#263238"/>
      <path id="Path_808" data-name="Path 808" d="M94.515,312.491a7.565,7.565,0,0,1-.529-.788,11.764,11.764,0,0,0-1.492-1.72c-.648-.617-1.282-1.129-1.75-1.505a4.2,4.2,0,0,1-.713-.639,3.858,3.858,0,0,1,.827.508,17.147,17.147,0,0,1,1.794,1.466,8.72,8.72,0,0,1,1.47,1.8A2.626,2.626,0,0,1,94.515,312.491Z" transform="translate(-73.163 -296.977)" fill="#263238"/>
      <path id="Path_809" data-name="Path 809" d="M86.6,370.529a19.326,19.326,0,0,0-2.9,1.116,20.287,20.287,0,0,0-2.564,1.75,2.927,2.927,0,0,1,.626-.683,9.088,9.088,0,0,1,3.938-2.061A2.837,2.837,0,0,1,86.6,370.529Z" transform="translate(-68.163 -332.237)" fill="#263238"/>
      <path id="Path_810" data-name="Path 810" d="M64.5,362.707c0,.07-1.383.153-3.023.6s-2.883,1.054-2.914.993a3,3,0,0,1,.788-.459,12.613,12.613,0,0,1,2.07-.753A12.3,12.3,0,0,1,63.6,362.7a3.2,3.2,0,0,1,.893,0Z" transform="translate(-55.462 -327.819)" fill="#263238"/>
      <path id="Path_811" data-name="Path 811" d="M76.33,360.155a7,7,0,0,1-.976-1.531A7.5,7.5,0,0,1,74.58,357a7.338,7.338,0,0,1,.976,1.531A7.6,7.6,0,0,1,76.33,360.155Z" transform="translate(-64.473 -324.628)" fill="#263238"/>
      <g id="Group_40" data-name="Group 40" transform="translate(13.847 33.639)" opacity="0.4">
        <path id="Path_812" data-name="Path 812" d="M84.323,362.745a4.139,4.139,0,0,1-1.142-1.868.941.941,0,0,1,.026-.691.713.713,0,0,1,.827-.245,1.965,1.965,0,0,1,.735.551,22.247,22.247,0,0,1,2.476,3.632" transform="translate(-83.128 -359.895)"/>
      </g>
      <path id="Path_813" data-name="Path 813" d="M102.48,435.71H122V444.1a9.761,9.761,0,0,1-9.761,9.761h0a9.761,9.761,0,0,1-9.761-9.761Z" transform="translate(-80.166 -368.9)" fill="#455a64"/>
      <path id="Path_814" data-name="Path 814" d="M122.026,447.483a5.481,5.481,0,0,1-.757-.227c-.486-.153-1.181-.394-2.061-.608a9.658,9.658,0,0,0-3.137-.315,6.719,6.719,0,0,0-1.811.411c-.608.223-1.221.512-1.868.774a7.392,7.392,0,0,1-1.978.556,6.127,6.127,0,0,1-1.912-.127c-1.19-.267-2.188-.691-3.063-.958a9.189,9.189,0,0,0-2.091-.438h-.582a.671.671,0,0,1-.206,0,.711.711,0,0,1,.206-.031,3.113,3.113,0,0,1,.586-.026,8.383,8.383,0,0,1,2.135.389c.875.249,1.89.656,3.063.906a5.863,5.863,0,0,0,1.846.109,7.14,7.14,0,0,0,1.912-.543c.643-.258,1.26-.547,1.881-.774a7.069,7.069,0,0,1,1.868-.411,9.461,9.461,0,0,1,3.194.368c.875.241,1.575.5,2.052.683l.543.219A1.078,1.078,0,0,1,122.026,447.483Z" transform="translate(-80.211 -374.775)" fill="#263238"/>
      <path id="Path_815" data-name="Path 815" d="M122.026,444.794a5.481,5.481,0,0,1-.757-.228c-.486-.157-1.181-.394-2.061-.612a9.781,9.781,0,0,0-3.137-.315,6.9,6.9,0,0,0-1.811.416c-.608.223-1.221.512-1.868.774a7.556,7.556,0,0,1-1.978.556,6.126,6.126,0,0,1-1.912-.131c-1.19-.267-2.188-.687-3.063-.958a9.4,9.4,0,0,0-2.091-.437,4.079,4.079,0,0,0-.582,0h-.206a.605.605,0,0,1,.206-.035,3.191,3.191,0,0,1,.586-.022,8.158,8.158,0,0,1,2.135.385c.875.254,1.89.661,3.063.906a5.868,5.868,0,0,0,1.846.114,7.477,7.477,0,0,0,1.912-.543c.643-.262,1.26-.551,1.881-.774a6.91,6.91,0,0,1,1.868-.416,9.69,9.69,0,0,1,3.194.367,20.375,20.375,0,0,1,2.052.687l.543.219C121.965,444.755,122.03,444.786,122.026,444.794Z" transform="translate(-80.211 -373.259)" fill="#263238"/>
    </g>
  </g>
</svg>
