<svg xmlns="http://www.w3.org/2000/svg" width="273.798" height="204.012" viewBox="0 0 273.798 204.012">
  <g id="Live_collaboration-rafiki" data-name="Live collaboration-rafiki" transform="translate(0 -55)">
    <g id="freepik--background-complete--inject-2" transform="translate(0 55)">
      <rect id="Rectangle_31" data-name="Rectangle 31" width="273.798" height="0.137" transform="translate(0 179.283)" fill="#ebebeb"/>
      <rect id="Rectangle_32" data-name="Rectangle 32" width="8.794" height="0.137" transform="translate(28.727 184.496)" fill="#ebebeb"/>
      <rect id="Rectangle_33" data-name="Rectangle 33" width="29.313" height="0.137" transform="translate(93.715 183.012)" fill="#ebebeb"/>
      <rect id="Rectangle_34" data-name="Rectangle 34" width="19.85" height="0.137" transform="translate(38.069 189.583)" fill="#ebebeb"/>
      <rect id="Rectangle_35" data-name="Rectangle 35" width="23.651" height="0.137" transform="translate(207.615 182.941)" fill="#ebebeb"/>
      <rect id="Rectangle_36" data-name="Rectangle 36" width="3.466" height="0.137" transform="translate(236.145 182.941)" fill="#ebebeb"/>
      <rect id="Rectangle_37" data-name="Rectangle 37" width="29.51" height="0.137" transform="translate(173.588 186.352)" fill="#ebebeb"/>
      <path id="Path_816" data-name="Path 816" d="M147.067,209.86H41.331a3.127,3.127,0,0,1-3.121-3.127V58.1A3.127,3.127,0,0,1,41.331,55H147.067a3.127,3.127,0,0,1,3.127,3.127V206.733A3.127,3.127,0,0,1,147.067,209.86ZM41.331,55.11a2.99,2.99,0,0,0-2.984,2.99V206.733a2.99,2.99,0,0,0,2.984,2.99H147.067a3,3,0,0,0,2.99-2.99V58.1a3,3,0,0,0-2.99-2.99Z" transform="translate(-17.286 -55)" fill="#ebebeb"/>
      <path id="Path_817" data-name="Path 817" d="M363.368,209.86H257.627a3.132,3.132,0,0,1-3.127-3.127V58.1a3.132,3.132,0,0,1,3.127-3.1H363.368a3.127,3.127,0,0,1,3.116,3.1V206.733A3.127,3.127,0,0,1,363.368,209.86ZM257.627,55.11a3,3,0,0,0-2.99,2.99V206.733a3,3,0,0,0,2.99,2.99H363.368a3,3,0,0,0,2.99-2.99V58.1a3,3,0,0,0-2.99-2.99Z" transform="translate(-115.137 -55)" fill="#ebebeb"/>
      <rect id="Rectangle_38" data-name="Rectangle 38" width="3.636" height="45.774" transform="translate(213.403 133.509)" fill="#f5f5f5"/>
      <rect id="Rectangle_39" data-name="Rectangle 39" width="3.165" height="45.774" transform="translate(215.457 133.509)" fill="#f0f0f0"/>
      <rect id="Rectangle_40" data-name="Rectangle 40" width="3.636" height="45.774" transform="translate(128.592 133.509)" fill="#f5f5f5"/>
      <rect id="Rectangle_41" data-name="Rectangle 41" width="3.165" height="45.774" transform="translate(130.645 133.509)" fill="#f0f0f0"/>
      <rect id="Rectangle_42" data-name="Rectangle 42" width="3.636" height="45.774" transform="translate(227.186 133.509)" fill="#f5f5f5"/>
      <rect id="Rectangle_43" data-name="Rectangle 43" width="3.165" height="45.774" transform="translate(229.24 133.509)" fill="#f0f0f0"/>
      <rect id="Rectangle_44" data-name="Rectangle 44" width="3.636" height="45.774" transform="translate(142.375 133.509)" fill="#f5f5f5"/>
      <rect id="Rectangle_45" data-name="Rectangle 45" width="103.808" height="1.736" transform="translate(232.405 134.374) rotate(180)" fill="#f0f0f0"/>
      <rect id="Rectangle_46" data-name="Rectangle 46" width="15.836" height="1.736" transform="translate(144.428 134.374) rotate(180)" fill="#e6e6e6"/>
      <rect id="Rectangle_47" data-name="Rectangle 47" width="3.165" height="45.774" transform="translate(144.428 133.509)" fill="#f0f0f0"/>
      <rect id="Rectangle_48" data-name="Rectangle 48" width="9.818" height="33.338" transform="translate(170.691 99.301)" fill="#ebebeb"/>
      <path id="Path_818" data-name="Path 818" d="M347.266,264.986H314.673L309.75,225.97h32.593Z" transform="translate(-140.132 -132.348)" fill="#e0e0e0"/>
      <path id="Path_819" data-name="Path 819" d="M349.879,264.986H316.213L311.29,225.97h33.666Z" transform="translate(-140.829 -132.348)" fill="#f0f0f0"/>
      <path id="Path_820" data-name="Path 820" d="M341.873,264.986H335.34l1.84-39.016h6.533Z" transform="translate(-151.709 -132.348)" fill="#fafafa"/>
      <path id="Path_821" data-name="Path 821" d="M355.629,264.986H349.2l1.84-39.016h6.429Z" transform="translate(-157.98 -132.348)" fill="#fafafa"/>
      <rect id="Rectangle_49" data-name="Rectangle 49" width="84.675" height="66.254" transform="translate(151.312 9.588)" fill="#e6e6e6"/>
      <rect id="Rectangle_50" data-name="Rectangle 50" width="86.027" height="66.254" transform="translate(152.5 9.588)" fill="#f0f0f0"/>
      <rect id="Rectangle_51" data-name="Rectangle 51" width="84.675" height="2.218" transform="translate(151.312 75.842)" fill="#e6e6e6"/>
      <rect id="Rectangle_52" data-name="Rectangle 52" width="86.027" height="2.218" transform="translate(153.852 75.842)" fill="#f0f0f0"/>
      <rect id="Rectangle_53" data-name="Rectangle 53" width="59.14" height="78.914" transform="translate(234.973 13.142) rotate(90)" fill="#fafafa"/>
      <path id="Path_822" data-name="Path 822" d="M363.85,138.145l5.695-59.135H379.4l-5.695,59.135Z" transform="translate(-164.607 -65.862)" fill="#fff"/>
      <path id="Path_823" data-name="Path 823" d="M318.43,138.145l5.7-59.135h9.857l-5.695,59.135Z" transform="translate(-144.059 -65.862)" fill="#fff"/>
      <path id="Path_824" data-name="Path 824" d="M287.778,119.786a.274.274,0,0,1-.268-.274V83a.274.274,0,0,1,.548,0v36.508a.274.274,0,0,1-.279.274Z" transform="translate(-130.071 -67.545)" fill="#f0f0f0"/>
      <path id="Path_825" data-name="Path 825" d="M385.71,138.145,391.4,79.01h3.844l-5.695,59.135Z" transform="translate(-174.497 -65.862)" fill="#fff"/>
      <rect id="Rectangle_54" data-name="Rectangle 54" width="59.14" height="0.449" transform="translate(234.973 13.148) rotate(90)" fill="#e6e6e6"/>
      <path id="Path_826" data-name="Path 826" d="M366.9,86.6H282.229L281.9,81.53h84.675Z" transform="translate(-127.533 -67.002)" fill="#e0e0e0" opacity="0.5"/>
      <path id="Path_827" data-name="Path 827" d="M366.9,101.805H282.229L281.9,96.74h84.675Z" transform="translate(-127.533 -73.883)" fill="#e0e0e0" opacity="0.5"/>
      <path id="Path_828" data-name="Path 828" d="M366.9,117.015H282.229l-.329-5.065h84.675Z" transform="translate(-127.533 -80.764)" fill="#e0e0e0" opacity="0.5"/>
      <path id="Path_829" data-name="Path 829" d="M366.9,132.225H282.229l-.329-5.065h84.675Z" transform="translate(-127.533 -87.646)" fill="#e0e0e0" opacity="0.5"/>
      <path id="Path_830" data-name="Path 830" d="M366.9,147.425H282.229l-.329-5.065h84.675Z" transform="translate(-127.533 -94.522)" fill="#e0e0e0" opacity="0.5"/>
      <path id="Path_831" data-name="Path 831" d="M366.9,162.635H282.229l-.329-5.065h84.675Z" transform="translate(-127.533 -101.403)" fill="#e0e0e0" opacity="0.5"/>
      <path id="Path_832" data-name="Path 832" d="M366.9,94.205H282.229L281.9,89.14h84.675Z" transform="translate(-127.533 -70.445)" fill="#e0e0e0" opacity="0.5"/>
      <path id="Path_833" data-name="Path 833" d="M366.9,109.405H282.229l-.329-5.065h84.675Z" transform="translate(-127.533 -77.322)" fill="#e0e0e0" opacity="0.5"/>
      <path id="Path_834" data-name="Path 834" d="M366.9,124.615H282.229l-.329-5.065h84.675Z" transform="translate(-127.533 -84.203)" fill="#e0e0e0" opacity="0.5"/>
      <path id="Path_835" data-name="Path 835" d="M366.9,139.825H282.229l-.329-5.065h84.675Z" transform="translate(-127.533 -91.084)" fill="#e0e0e0" opacity="0.5"/>
      <path id="Path_836" data-name="Path 836" d="M366.9,155.035H282.229l-.329-5.065h84.675Z" transform="translate(-127.533 -97.965)" fill="#e0e0e0" opacity="0.5"/>
      <path id="Path_837" data-name="Path 837" d="M366.9,170.241H282.229l-.329-5.071h84.675Z" transform="translate(-127.533 -104.841)" fill="#e0e0e0" opacity="0.5"/>
      <rect id="Rectangle_55" data-name="Rectangle 55" width="16.773" height="9.692" rx="4.82" transform="translate(68.455 42.472) rotate(180)" fill="#f5f5f5"/>
      <rect id="Rectangle_56" data-name="Rectangle 56" width="16.773" height="9.692" rx="4.82" transform="translate(68.455 32.774) rotate(180)" fill="#f5f5f5"/>
      <rect id="Rectangle_57" data-name="Rectangle 57" width="5.81" height="3.357" rx="1.67" transform="translate(62.973 23.081) rotate(180)" fill="#e0e0e0"/>
      <rect id="Rectangle_58" data-name="Rectangle 58" width="16.773" height="9.692" rx="4.82" transform="translate(68.455 52.158) rotate(180)" fill="#f5f5f5"/>
      <path id="Path_838" data-name="Path 838" d="M174.423,138s-.548,6.735-21.844,6.735S130.73,138,130.73,138Z" transform="translate(-59.143 -92.55)" fill="#f0f0f0"/>
      <rect id="Rectangle_59" data-name="Rectangle 59" width="16.877" height="119.502" transform="translate(33.086 53.527)" fill="#f0f0f0"/>
      <rect id="Rectangle_60" data-name="Rectangle 60" width="83.224" height="6.254" transform="translate(36.322 173.029)" fill="#f0f0f0"/>
      <rect id="Rectangle_61" data-name="Rectangle 61" width="72.825" height="119.502" transform="translate(122.787 173.024) rotate(180)" fill="#f5f5f5"/>
      <rect id="Rectangle_62" data-name="Rectangle 62" width="59.556" height="28.201" transform="translate(116.15 124.189) rotate(180)" fill="#f0f0f0"/>
      <rect id="Rectangle_63" data-name="Rectangle 63" width="59.556" height="28.201" transform="translate(116.15 158.682) rotate(180)" fill="#f0f0f0"/>
      <rect id="Rectangle_64" data-name="Rectangle 64" width="59.556" height="4.299" transform="translate(116.15 168.851) rotate(180)" fill="#f0f0f0"/>
      <path id="Path_839" data-name="Path 839" d="M158.407,230.466H128.136a2.371,2.371,0,0,1-2.366-2.366h0a2.371,2.371,0,0,1,2.366-2.36h30.271a2.371,2.371,0,0,1,2.366,2.36h0A2.371,2.371,0,0,1,158.407,230.466Z" transform="translate(-56.899 -132.244)" fill="#f5f5f5"/>
      <rect id="Rectangle_65" data-name="Rectangle 65" width="59.556" height="28.201" transform="translate(116.15 89.702) rotate(180)" fill="#f0f0f0"/>
      <path id="Path_840" data-name="Path 840" d="M158.407,167.481H128.136a2.371,2.371,0,0,1-2.366-2.366h0a2.371,2.371,0,0,1,2.366-2.366h30.271a2.371,2.371,0,0,1,2.366,2.366h0A2.371,2.371,0,0,1,158.407,167.481Z" transform="translate(-56.899 -103.747)" fill="#f5f5f5"/>
      <path id="Path_841" data-name="Path 841" d="M158.407,293.451H128.136a2.371,2.371,0,0,1-2.366-2.366h0a2.371,2.371,0,0,1,2.366-2.366h30.271a2.371,2.371,0,0,1,2.366,2.366h0A2.371,2.371,0,0,1,158.407,293.451Z" transform="translate(-56.899 -160.736)" fill="#f5f5f5"/>
      <rect id="Rectangle_66" data-name="Rectangle 66" width="75.075" height="1.364" transform="translate(49.957 52.164)" fill="#f0f0f0"/>
      <rect id="Rectangle_67" data-name="Rectangle 67" width="19.232" height="1.364" transform="translate(49.963 53.527) rotate(180)" fill="#e6e6e6"/>
    </g>
    <g id="freepik--Shadow--inject-2" transform="translate(30.726 246.615)">
      <ellipse id="freepik--path--inject-2" cx="106.173" cy="6.199" rx="106.173" ry="6.199" fill="#f5f5f5"/>
    </g>
    <g id="freepik--Table--inject-2" transform="translate(27.851 194.861)">
      <path id="Path_842" data-name="Path 842" d="M265.079,314.079H54.737L50.86,310.41h218.1Z" transform="translate(-50.86 -310.41)" fill="#407bff"/>
      <path id="Path_843" data-name="Path 843" d="M265.079,314.079H54.737L50.86,310.41h218.1Z" transform="translate(-50.86 -310.41)" fill="#fff" opacity="0.5"/>
      <path id="Path_844" data-name="Path 844" d="M262.491,319.087H88.224L85.01,317.11h180.7Z" transform="translate(-66.31 -313.441)" fill="#407bff"/>
      <path id="Path_845" data-name="Path 845" d="M262.491,319.087H88.224L85.01,317.11h180.7Z" transform="translate(-66.31 -313.441)" opacity="0.5"/>
      <path id="Path_846" data-name="Path 846" d="M86.293,373.026h-2.5l7.759-52.306h5.58Z" transform="translate(-65.758 -315.074)" fill="#407bff"/>
      <path id="Path_847" data-name="Path 847" d="M86.293,373.026h-2.5l7.759-52.306h5.58Z" transform="translate(-65.758 -315.074)" opacity="0.5"/>
      <path id="Path_848" data-name="Path 848" d="M111.037,373.026h-2.5L116.3,320.72h5.58Z" transform="translate(-76.955 -315.074)" fill="#407bff"/>
      <path id="Path_849" data-name="Path 849" d="M111.037,373.026h-2.5L116.3,320.72h5.58Z" transform="translate(-76.955 -315.074)" opacity="0.5"/>
      <path id="Path_850" data-name="Path 850" d="M402.687,373.026h2.5l-7.76-52.306h-5.58Z" transform="translate(-205.125 -315.074)" fill="#407bff"/>
      <path id="Path_851" data-name="Path 851" d="M402.687,373.026h2.5l-7.76-52.306h-5.58Z" transform="translate(-205.125 -315.074)" opacity="0.5"/>
      <path id="Path_852" data-name="Path 852" d="M377.942,373.026h2.5L372.68,320.72H367.1Z" transform="translate(-193.928 -315.074)" fill="#407bff"/>
      <path id="Path_853" data-name="Path 853" d="M377.942,373.026h2.5L372.68,320.72H367.1Z" transform="translate(-193.928 -315.074)" opacity="0.5"/>
    </g>
    <g id="freepik--Gear--inject-2" transform="translate(101.827 76.978)">
      <path id="Path_854" data-name="Path 854" d="M206.941,95.138l7.069.476a1.506,1.506,0,0,1,1.281.887l.745,1.643a1.511,1.511,0,0,0,.816.778,20.46,20.46,0,0,1,2.574,1.276,1.523,1.523,0,0,0,1.1.175l1.774-.416a1.522,1.522,0,0,1,1.484.476l4.666,5.334a1.517,1.517,0,0,1,.274,1.539l-.646,1.7a1.517,1.517,0,0,0,.027,1.128,20.641,20.641,0,0,1,.92,2.738,1.49,1.49,0,0,0,.663.909l1.544.958a1.506,1.506,0,0,1,.712,1.385l-.471,7.075a1.5,1.5,0,0,1-.893,1.276l-1.643.745a1.55,1.55,0,0,0-.778.816,19.707,19.707,0,0,1-1.27,2.574,1.506,1.506,0,0,0-.175,1.1l.411,1.769a1.506,1.506,0,0,1-.476,1.484l-5.334,4.666a1.506,1.506,0,0,1-1.533.274l-1.7-.646a1.528,1.528,0,0,0-1.123,0,21.206,21.206,0,0,1-2.738.92,1.511,1.511,0,0,0-.909.663l-.958,1.544a1.517,1.517,0,0,1-1.391.712l-7.069-.471a1.517,1.517,0,0,1-1.281-.887l-.745-1.643a1.511,1.511,0,0,0-.816-.778,20.458,20.458,0,0,1-2.574-1.276,1.517,1.517,0,0,0-1.1-.175l-1.769.416a1.511,1.511,0,0,1-1.484-.476l-4.671-5.334a1.528,1.528,0,0,1-.274-1.539l.646-1.7a1.5,1.5,0,0,0-.027-1.123,20.994,20.994,0,0,1-.92-2.738,1.49,1.49,0,0,0-.663-.909l-1.544-.958a1.506,1.506,0,0,1-.712-1.385l.471-7.075a1.522,1.522,0,0,1,.893-1.281l1.643-.739a1.511,1.511,0,0,0,.778-.816,20.51,20.51,0,0,1,1.276-2.579,1.528,1.528,0,0,0,.181-1.1l-.416-1.769a1.511,1.511,0,0,1,.476-1.484l5.334-4.666a1.511,1.511,0,0,1,1.533-.279l1.7.646a1.5,1.5,0,0,0,1.123,0,20.386,20.386,0,0,1,2.738-.92,1.539,1.539,0,0,0,.909-.657l.958-1.544A1.522,1.522,0,0,1,206.941,95.138Zm-11.363,22.106a13.411,13.411,0,1,0,14.27-12.485A13.411,13.411,0,0,0,195.578,117.244Z" transform="translate(-185.953 -95.135)" fill="#939393"/>
      <path id="Path_855" data-name="Path 855" d="M271.5,149.01l2.426-.821a.756.756,0,0,1,.75.164l.4.383a.773.773,0,0,0,.509.2,7.493,7.493,0,0,1,1,.066.729.729,0,0,0,.548-.131l.449-.323a.756.756,0,0,1,.767-.06l2.294,1.139a.745.745,0,0,1,.416.641v.548a.755.755,0,0,0,.219.5,7.17,7.17,0,0,1,.657.75.761.761,0,0,0,.465.285l.548.088a.739.739,0,0,1,.58.5l.821,2.426a.739.739,0,0,1-.159.75l-.383.4a.761.761,0,0,0-.2.509,7.574,7.574,0,0,1-.066,1,.733.733,0,0,0,.126.548l.323.449a.734.734,0,0,1,.066.761l-1.139,2.3a.745.745,0,0,1-.641.416h-.548a.728.728,0,0,0-.5.219,9.6,9.6,0,0,1-.75.657.761.761,0,0,0-.285.465l-.088.548a.739.739,0,0,1-.5.58l-2.426.821a.739.739,0,0,1-.75-.164l-.405-.378a.723.723,0,0,0-.509-.2,7.467,7.467,0,0,1-.991-.066.728.728,0,0,0-.548.126l-.449.323a.745.745,0,0,1-.767.066l-2.294-1.139a.745.745,0,0,1-.416-.646v-.548a.756.756,0,0,0-.219-.5,7.773,7.773,0,0,1-.657-.75.712.712,0,0,0-.465-.285l-.548-.088a.767.767,0,0,1-.586-.5l-.821-2.431a.745.745,0,0,1,.164-.745l.383-.4a.773.773,0,0,0,.2-.515,7.527,7.527,0,0,1,.066-1,.739.739,0,0,0-.131-.548l-.318-.449a.734.734,0,0,1-.066-.761l1.139-2.3a.728.728,0,0,1,.641-.411h.548a.755.755,0,0,0,.5-.219,7.793,7.793,0,0,1,.75-.657.76.76,0,0,0,.285-.465l.088-.548A.739.739,0,0,1,271.5,149.01Zm1.451,8.86a2.738,2.738,0,1,0,.138-2.1A2.738,2.738,0,0,0,272.952,157.87Z" transform="translate(-222.493 -119.12)" fill="#407bff"/>
      <path id="Path_856" data-name="Path 856" d="M271.5,149.01l2.426-.821a.756.756,0,0,1,.75.164l.4.383a.773.773,0,0,0,.509.2,7.493,7.493,0,0,1,1,.066.729.729,0,0,0,.548-.131l.449-.323a.756.756,0,0,1,.767-.06l2.294,1.139a.745.745,0,0,1,.416.641v.548a.755.755,0,0,0,.219.5,7.17,7.17,0,0,1,.657.75.761.761,0,0,0,.465.285l.548.088a.739.739,0,0,1,.58.5l.821,2.426a.739.739,0,0,1-.159.75l-.383.4a.761.761,0,0,0-.2.509,7.574,7.574,0,0,1-.066,1,.733.733,0,0,0,.126.548l.323.449a.734.734,0,0,1,.066.761l-1.139,2.3a.745.745,0,0,1-.641.416h-.548a.728.728,0,0,0-.5.219,9.6,9.6,0,0,1-.75.657.761.761,0,0,0-.285.465l-.088.548a.739.739,0,0,1-.5.58l-2.426.821a.739.739,0,0,1-.75-.164l-.405-.378a.723.723,0,0,0-.509-.2,7.467,7.467,0,0,1-.991-.066.728.728,0,0,0-.548.126l-.449.323a.745.745,0,0,1-.767.066l-2.294-1.139a.745.745,0,0,1-.416-.646v-.548a.756.756,0,0,0-.219-.5,7.773,7.773,0,0,1-.657-.75.712.712,0,0,0-.465-.285l-.548-.088a.767.767,0,0,1-.586-.5l-.821-2.431a.745.745,0,0,1,.164-.745l.383-.4a.773.773,0,0,0,.2-.515,7.527,7.527,0,0,1,.066-1,.739.739,0,0,0-.131-.548l-.318-.449a.734.734,0,0,1-.066-.761l1.139-2.3a.728.728,0,0,1,.641-.411h.548a.755.755,0,0,0,.5-.219,7.793,7.793,0,0,1,.75-.657.76.76,0,0,0,.285-.465l.088-.548A.739.739,0,0,1,271.5,149.01Zm1.451,8.86a2.738,2.738,0,1,0,.138-2.1A2.738,2.738,0,0,0,272.952,157.87Z" transform="translate(-222.493 -119.12)" fill="#dbdada" opacity="0.5"/>
      <path id="Path_857" data-name="Path 857" d="M245.458,191.836l3.012-5.219a1.287,1.287,0,0,0-1.1-1.928h-6.024a1.281,1.281,0,0,0-1.1,1.927l3.012,5.219a1.287,1.287,0,0,0,2.19,0Z" transform="translate(-210.441 -135.65)" fill="#2f4880"/>
    </g>
    <g id="freepik--character-1--inject-2" transform="translate(34.398 97.335)">
      <path id="Path_858" data-name="Path 858" d="M66.581,259.592H140.4a1.884,1.884,0,0,0,1.889-1.949l-1.747-52.777a2.048,2.048,0,0,0-2.021-1.955H64.708a1.878,1.878,0,0,0-1.889,1.955l1.741,52.777A2.032,2.032,0,0,0,66.581,259.592Z" transform="translate(-62.817 -164.25)" fill="#407bff"/>
      <path id="Path_859" data-name="Path 859" d="M67.681,259.592H141.5a1.884,1.884,0,0,0,1.889-1.949l-1.747-52.777a2.048,2.048,0,0,0-2.021-1.955H65.808a1.884,1.884,0,0,0-1.889,1.955l1.747,52.777A2.032,2.032,0,0,0,67.681,259.592Z" transform="translate(-63.315 -164.25)" fill="#407bff"/>
      <g id="Group_41" data-name="Group 41" transform="translate(0.603 38.66)" opacity="0.6">
        <path id="Path_860" data-name="Path 860" d="M67.681,259.592H141.5a1.884,1.884,0,0,0,1.889-1.949l-1.747-52.777a2.048,2.048,0,0,0-2.021-1.955H65.808a1.884,1.884,0,0,0-1.889,1.955l1.747,52.777A2.032,2.032,0,0,0,67.681,259.592Z" transform="translate(-63.918 -202.91)" fill="#263238"/>
      </g>
      <path id="Path_861" data-name="Path 861" d="M70.734,306.25h89.154a2.338,2.338,0,0,1,2.1,1.314.674.674,0,0,1-.613.964H69.244a.674.674,0,0,1-.619-.964A2.344,2.344,0,0,1,70.734,306.25Z" transform="translate(-65.415 -211.001)" fill="#407bff"/>
      <path id="Path_862" data-name="Path 862" d="M174.768,306.25H103.624a2.344,2.344,0,0,0-2.108,1.314.674.674,0,0,0,.619.964h74.123a.674.674,0,0,0,.613-.964A2.338,2.338,0,0,0,174.768,306.25Z" transform="translate(-80.295 -211.001)" fill="#263238" opacity="0.6"/>
      <path id="Path_863" data-name="Path 863" d="M156.992,308.89H175.5a.832.832,0,0,1,.827.832H156.16A.832.832,0,0,1,156.992,308.89Z" transform="translate(-105.046 -212.196)" fill="#fff" opacity="0.3"/>
      <path id="Path_864" data-name="Path 864" d="M143.085,258.3l-1.643-48.955a.8.8,0,0,0-.789-.761H67.872a.728.728,0,0,0-.734.778l1.643,48.955a.789.789,0,0,0,.783.761h72.83a.734.734,0,0,0,.69-.778Z" transform="translate(-64.771 -166.815)" fill="#fff" opacity="0.9"/>
      <path id="Path_865" data-name="Path 865" d="M87.967,259.057H77.93L89.5,208.58H99.538Z" transform="translate(-69.654 -166.815)" fill="#fff"/>
      <path id="Path_866" data-name="Path 866" d="M104.954,259.057H101.34l11.571-50.477h3.614Z" transform="translate(-80.245 -166.815)" fill="#fff"/>
      <path id="Path_867" data-name="Path 867" d="M172.384,259.057H168.77l11.571-50.477h3.609Z" transform="translate(-110.751 -166.815)" fill="#fff"/>
      <path id="Path_868" data-name="Path 868" d="M133.82,205.448a.6.6,0,0,0,.591.548.548.548,0,0,0,.548-.548.591.591,0,0,0-.591-.548.548.548,0,0,0-.548.548Z" transform="translate(-94.939 -165.15)" fill="#fff" opacity="0.4"/>
      <path id="Path_869" data-name="Path 869" d="M171.243,196.06c.969,1.555,2.015,3.2,3.061,4.791s2.119,3.176,3.214,4.731a99.5,99.5,0,0,0,6.883,8.888,34.844,34.844,0,0,0,3.751,3.685l.471.372a3.531,3.531,0,0,0,.323.246,8.82,8.82,0,0,0,.882.509,16.482,16.482,0,0,0,2.289.909,26.678,26.678,0,0,0,2.585.75c.887.2,1.8.438,2.738.63,1.834.389,3.751.745,5.6,1.062v3.833c-1.051.153-2.037.23-3.061.3s-2.037.1-3.067.1a38.122,38.122,0,0,1-6.275-.5,23.107,23.107,0,0,1-3.313-.832,12.942,12.942,0,0,1-1.763-.756,7.875,7.875,0,0,1-.925-.548l-.706-.493a38.018,38.018,0,0,1-4.874-4.266,87.2,87.2,0,0,1-7.825-9.408q-1.78-2.437-3.428-4.928c-1.1-1.687-2.19-3.34-3.209-5.136Z" transform="translate(-108.86 -161.151)" fill="#ffc3bd"/>
      <path id="Path_870" data-name="Path 870" d="M159.894,194.066c-.548,4.808,10.914,16.3,10.914,16.3l7.754-6.473a105.205,105.205,0,0,0-7.529-11.067C166.624,187.364,160.491,188.629,159.894,194.066Z" transform="translate(-106.727 -158.095)" fill="#ad4380"/>
      <path id="Path_871" data-name="Path 871" d="M166.156,201.41c-3.061-3.286-4.523-4.134-6.286-2.826.235,5.076,10.952,15.7,10.952,15.7C171.523,208.835,168.747,205.331,166.156,201.41Z" transform="translate(-106.724 -162.027)" opacity="0.3"/>
      <path id="Path_872" data-name="Path 872" d="M184.942,211.89l.816,2.366-8.674,7.119-1.714-1.78Z" transform="translate(-113.737 -168.312)" fill="#407bff"/>
      <path id="Path_873" data-name="Path 873" d="M184.942,211.89l.816,2.366-8.674,7.119-1.714-1.78Z" transform="translate(-113.737 -168.312)" fill="#263238" opacity="0.3"/>
      <path id="Path_874" data-name="Path 874" d="M231.892,244.45l6.023,1.035-3.313,5.29c-.789.126-3.932-1.577-5.323-3.691Z" transform="translate(-138.126 -183.043)" fill="#ffc3bd"/>
      <path id="Path_875" data-name="Path 875" d="M246,249.91l-2.4,2.727L238.99,251.6l3.307-5.262Z" transform="translate(-142.519 -183.898)" fill="#ffc3bd"/>
      <path id="Path_876" data-name="Path 876" d="M147.6,188.279s6.571,15.453,1.84,44.235h-27.38c-.334-4.2,1.594-24.7-3.143-44.5a70.054,70.054,0,0,1,9.128-1.155,100.5,100.5,0,0,1,11.636,0A52.085,52.085,0,0,1,147.6,188.279Z" transform="translate(-88.198 -156.913)" fill="#ad4380"/>
      <path id="Path_877" data-name="Path 877" d="M125.408,195.509c.548,3.286-.186,11.05-2.979,20.064a130.688,130.688,0,0,0-2.689-23v-.038C121.525,192.388,124.866,192.475,125.408,195.509Z" transform="translate(-88.569 -159.537)" opacity="0.3"/>
      <path id="Path_878" data-name="Path 878" d="M136.285,163.07c.865,3.746,1.834,10.607-.7,13.1,0,0,1.1,3.1,8.05,3.1,7.666,0,3.587-3.1,3.587-3.1-4.211-1-4.211-4.1-3.587-7Z" transform="translate(-95.74 -146.226)" fill="#ffc3bd"/>
      <path id="Path_879" data-name="Path 879" d="M149.349,193.093l1.643,1.736a.35.35,0,0,1,.066.394l-.821,1.714a.345.345,0,0,1-.3.2l-1.243.06a.345.345,0,0,1-.3-.153l-1.15-1.643a.356.356,0,0,1,0-.427l1.577-1.867a.345.345,0,0,1,.531-.016Z" transform="translate(-100.979 -159.756)" fill="#fff"/>
      <path id="Path_880" data-name="Path 880" d="M142.542,188.869a8.92,8.92,0,0,0-1.331,4.217s-8.888-3.039-8.482-7.486A17.6,17.6,0,0,0,135,184.28S135.292,187.089,142.542,188.869Z" transform="translate(-94.439 -155.821)" fill="#263238"/>
      <path id="Path_881" data-name="Path 881" d="M150.66,189.529a12.13,12.13,0,0,1,1.681,3.948s4.118-2.82,2.946-7.217l-2.42-.52A3.4,3.4,0,0,1,150.66,189.529Z" transform="translate(-102.558 -156.482)" fill="#263238"/>
      <path id="Path_882" data-name="Path 882" d="M151.161,200.073c.548,1.818,4.676,15.3,4.781,18.525a.415.415,0,0,1,0,.082,28.086,28.086,0,0,1-2.8,5.974.29.29,0,0,1-.52-.033c-.482-1.177-1.643-4-2.409-5.646a.335.335,0,0,1-.027-.1c-.361-5.887-.46-15.042-.641-18.7a.29.29,0,0,1,.29-.307h1.057A.29.29,0,0,1,151.161,200.073Z" transform="translate(-102.051 -162.874)" fill="#fff"/>
      <path id="Path_883" data-name="Path 883" d="M142.255,167.61l4.353,3.609a11.783,11.783,0,0,0-.29,2.064c-1.6-.23-3.833-1.977-4.08-3.647A5.476,5.476,0,0,1,142.255,167.61Z" transform="translate(-98.709 -148.28)" opacity="0.2"/>
      <path id="Path_884" data-name="Path 884" d="M155.152,142.49c1.035.772,2.8,4.036.548,4.89S152.616,140.595,155.152,142.49Z" transform="translate(-103.884 -136.778)" fill="#263238"/>
      <path id="Path_885" data-name="Path 885" d="M134.263,148.112c1.035,4.989,1.391,7.951,4.31,10.246a6.62,6.62,0,0,0,10.755-4.671c.427-4.627-1.347-12-6.571-13.46a6.7,6.7,0,0,0-8.493,7.885Z" transform="translate(-95.064 -135.759)" fill="#ffc3bd"/>
      <path id="Path_886" data-name="Path 886" d="M129.406,148.42l2.092-1.4.137-1.216a9.057,9.057,0,0,0-.947-5.12h0s10.169.378,11.428-2.8-2.322-5.575-2.322-5.575-3.6,2.064-6.024,2.229-9.857-2.869-9.857,3.412c-3.286,1.013-3.176,6.418,5.476,10.47" transform="translate(-89.556 -132.31)" fill="#263238"/>
      <path id="Path_887" data-name="Path 887" d="M125.033,139.481s-1.347-1.068-.345-4.331C123.456,135.763,122.864,139.1,125.033,139.481Z" transform="translate(-90.308 -133.595)" fill="#263238"/>
      <path id="Path_888" data-name="Path 888" d="M131.208,162.472a5.066,5.066,0,0,0,3.286,1.78c1.7.181,2.19-1.385,1.457-2.826-.679-1.292-2.376-2.946-3.943-2.459A2.109,2.109,0,0,0,131.208,162.472Z" transform="translate(-93.483 -144.331)" fill="#ffc3bd"/>
      <path id="Path_889" data-name="Path 889" d="M162.082,287.011h-17.5c-1.572-9.5-2.837-16.641-2.837-16.641h18.021S160.784,277.4,162.082,287.011Z" transform="translate(-98.527 -194.769)" fill="#263238"/>
      <path id="Path_890" data-name="Path 890" d="M125.31,287.011c-.394-9.5-.69-16.641-.69-16.641h17.665s.088,7.234.126,16.641Z" transform="translate(-90.777 -194.769)" fill="#263238"/>
      <path id="Path_891" data-name="Path 891" d="M148.72,155.243c.06.411.323.717.591.69s.438-.389.378-.794-.323-.717-.591-.69S148.66,154.832,148.72,155.243Z" transform="translate(-101.674 -142.325)" fill="#263238"/>
      <path id="Path_892" data-name="Path 892" d="M157.19,154.343c.06.411.323.717.591.685s.438-.383.378-.789-.323-.717-.591-.69S157.13,153.916,157.19,154.343Z" transform="translate(-105.506 -141.918)" fill="#263238"/>
      <path id="Path_893" data-name="Path 893" d="M154.56,155.64a15.507,15.507,0,0,0,2.464,3.286,2.335,2.335,0,0,1-1.906.581Z" transform="translate(-104.322 -142.865)" fill="#ed847e"/>
      <path id="Path_894" data-name="Path 894" d="M150.3,163.96a4.016,4.016,0,0,0,.849,0,.12.12,0,0,0,.109-.131.126.126,0,0,0-.137-.11,3.4,3.4,0,0,1-2.836-.975.122.122,0,1,0-.186.159A3.526,3.526,0,0,0,150.3,163.96Z" transform="translate(-101.384 -146.059)" fill="#263238"/>
      <path id="Path_895" data-name="Path 895" d="M145.489,152.161a.235.235,0,0,0,.235-.12,1.834,1.834,0,0,1,1.424-.964.246.246,0,0,0,.23-.257.241.241,0,0,0-.252-.23,2.338,2.338,0,0,0-1.824,1.21.241.241,0,0,0,.093.334A.186.186,0,0,0,145.489,152.161Z" transform="translate(-100.119 -140.58)" fill="#263238"/>
      <path id="Path_896" data-name="Path 896" d="M158.768,150.4a.257.257,0,0,0,.164-.044.246.246,0,0,0,.066-.334,2.5,2.5,0,0,0-1.922-1.155.241.241,0,1,0-.005.482,2.015,2.015,0,0,1,1.522.942A.257.257,0,0,0,158.768,150.4Z" transform="translate(-105.349 -139.802)" fill="#263238"/>
      <path id="Path_897" data-name="Path 897" d="M115.825,199.695l-1.216,2.1q-.613,1.1-1.2,2.19-1.183,2.19-2.267,4.414c-.712,1.484-1.391,2.973-2,4.474-.29.745-.586,1.495-.838,2.245l-.389,1.123-.323,1.1-.082.279-.044.142v.033a.185.185,0,0,1-.038.12,3.122,3.122,0,0,0,0,.646,9.5,9.5,0,0,0,.405,1.917,33.577,33.577,0,0,0,1.752,4.381c1.385,2.974,3.072,5.974,4.731,8.9l-3.028,2.366c-1.292-1.3-2.453-2.617-3.592-4.008s-2.19-2.837-3.225-4.381a32.968,32.968,0,0,1-2.738-4.978,16.232,16.232,0,0,1-1.008-3.078,9.484,9.484,0,0,1-.208-1.944,6.841,6.841,0,0,1,.088-1.172l.044-.285.038-.175.071-.356a41.5,41.5,0,0,1,1.44-5.476c.58-1.763,1.259-3.461,1.982-5.136s1.517-3.286,2.366-4.9c.427-.794.86-1.583,1.314-2.371s.9-1.533,1.446-2.371Z" transform="translate(-79.874 -160.897)" fill="#ffc3bd"/>
      <path id="Path_898" data-name="Path 898" d="M110.846,189.032c-4.819.706-9.786,17.485-9.786,17.485l10.371,5.744a120.217,120.217,0,0,0,6.2-13.909C119.733,192.143,116.009,188.277,110.846,189.032Z" transform="translate(-80.118 -157.929)" fill="#ad4380"/>
      <path id="Path_899" data-name="Path 899" d="M101.088,216.72l-.438,2.464,10.656,5.865,1.418-2.032Z" transform="translate(-79.933 -170.497)" fill="#407bff"/>
      <path id="Path_900" data-name="Path 900" d="M101.088,216.72l-.438,2.464,10.656,5.865,1.418-2.032Z" transform="translate(-79.933 -170.497)" fill="#ad4380" opacity="0.3"/>
      <path id="Path_901" data-name="Path 901" d="M121.574,262.557l5.093-.887-2.612,5.9s-4.655-.027-4.441-2.426Z" transform="translate(-88.509 -190.833)" fill="#ffc3bd"/>
      <path id="Path_902" data-name="Path 902" d="M134.148,264.633l-2.4,4.764-4.019-1.829,2.612-5.9Z" transform="translate(-92.184 -190.833)" fill="#ffc3bd"/>
    </g>
    <g id="freepik--character-2--inject-2" transform="translate(131.27 98.128)">
      <path id="Path_903" data-name="Path 903" d="M367.76,259.592H293.938a1.884,1.884,0,0,1-1.889-1.949l1.747-52.777a2.048,2.048,0,0,1,2.021-1.955h73.816a1.878,1.878,0,0,1,1.889,1.955l-1.741,52.777A2.032,2.032,0,0,1,367.76,259.592Z" transform="translate(-263.393 -165.044)" fill="#407bff"/>
      <path id="Path_904" data-name="Path 904" d="M367.76,259.592H293.938a1.884,1.884,0,0,1-1.889-1.949l1.747-52.777a2.048,2.048,0,0,1,2.021-1.955h73.816a1.878,1.878,0,0,1,1.889,1.955l-1.741,52.777A2.032,2.032,0,0,1,367.76,259.592Z" transform="translate(-263.393 -165.044)" fill="#263238" opacity="0.6"/>
      <path id="Path_905" data-name="Path 905" d="M366.66,259.592H292.838a1.884,1.884,0,0,1-1.889-1.949l1.747-52.777a2.048,2.048,0,0,1,2.021-1.955h73.816a1.884,1.884,0,0,1,1.889,1.955l-1.747,52.777A2.032,2.032,0,0,1,366.66,259.592Z" transform="translate(-262.896 -165.044)" fill="#407bff"/>
      <path id="Path_906" data-name="Path 906" d="M352.023,306.25H262.868a2.338,2.338,0,0,0-2.1,1.314.674.674,0,0,0,.613.964h92.133a.674.674,0,0,0,.619-.964,2.344,2.344,0,0,0-2.108-1.314Z" transform="translate(-249.211 -211.795)" fill="#407bff"/>
      <path id="Path_907" data-name="Path 907" d="M414.364,306.25h-13.69a2.344,2.344,0,0,0-2.108,1.314.674.674,0,0,0,.619.964h16.641a.674.674,0,0,0,.619-.964A2.343,2.343,0,0,0,414.364,306.25Z" transform="translate(-311.553 -211.795)" fill="#263238" opacity="0.6"/>
      <path id="Path_908" data-name="Path 908" d="M326.346,308.89H307.837a.832.832,0,0,0-.827.832h20.168a.832.832,0,0,0-.832-.832Z" transform="translate(-270.162 -212.99)" opacity="0.2"/>
      <path id="Path_909" data-name="Path 909" d="M294.17,258.3l1.643-48.955a.8.8,0,0,1,.789-.761h72.83a.728.728,0,0,1,.734.761L368.522,258.3a.789.789,0,0,1-.783.761h-72.83a.734.734,0,0,1-.739-.761Z" transform="translate(-264.353 -167.609)" fill="#fff" opacity="0.9"/>
      <path id="Path_910" data-name="Path 910" d="M380.427,259.057H370.39l11.571-50.477H392Z" transform="translate(-298.836 -167.609)" fill="#fff"/>
      <path id="Path_911" data-name="Path 911" d="M306.144,259.057H302.53L314.1,208.58h3.609Z" transform="translate(-268.135 -167.609)" fill="#fff"/>
      <path id="Path_912" data-name="Path 912" d="M400.764,259.057H397.15l11.571-50.477h3.614Z" transform="translate(-310.942 -167.609)" fill="#fff"/>
      <path id="Path_913" data-name="Path 913" d="M365.239,205.448a.6.6,0,0,1-.591.548.548.548,0,0,1-.548-.548.591.591,0,0,1,.591-.548A.548.548,0,0,1,365.239,205.448Z" transform="translate(-295.99 -165.944)" opacity="0.4"/>
      <path id="Path_914" data-name="Path 914" d="M346.53,163.07c-.86,3.746-1.834,10.607.7,13.1,0,0-1.1,3.1-8.05,3.1-7.666,0-3.587-3.1-3.587-3.1,4.211-1,4.211-4.1,3.581-7Z" transform="translate(-282.603 -147.02)" fill="#b55b52"/>
      <path id="Path_915" data-name="Path 915" d="M371.422,195.56c.548.838,1,1.572,1.446,2.371s.893,1.577,1.32,2.371c.843,1.6,1.643,3.225,2.365,4.9s1.4,3.373,1.977,5.136a41.517,41.517,0,0,1,1.446,5.476l.071.356.033.175.049.285a8.159,8.159,0,0,1,.088,1.172,10.309,10.309,0,0,1-.208,1.944A16.215,16.215,0,0,1,379,222.819a32.48,32.48,0,0,1-2.738,4.978c-1.018,1.528-2.092,2.973-3.231,4.381a53.535,53.535,0,0,1-3.592,4.008l-3.023-2.366c1.643-2.93,3.346-5.93,4.731-8.9a33.55,33.55,0,0,0,1.747-4.381,9.5,9.5,0,0,0,.405-1.917,2.849,2.849,0,0,0,0-.646c0-.06,0-.115-.044-.12v-.033l-.038-.142-.082-.279-.329-1.1-.383-1.122c-.257-.75-.548-1.5-.843-2.245-.608-1.5-1.287-2.99-1.993-4.474s-1.484-2.952-2.267-4.414q-.58-1.1-1.2-2.19l-1.216-2.1Z" transform="translate(-296.352 -161.718)" fill="#b65b52"/>
      <path id="Path_916" data-name="Path 916" d="M368.3,189.032c4.819.706,9.78,17.485,9.78,17.485l-10.366,5.744a116.893,116.893,0,0,1-6.2-13.909C359.4,192.143,363.15,188.277,368.3,189.032Z" transform="translate(-294.548 -158.723)" fill="#263238"/>
      <path id="Path_917" data-name="Path 917" d="M368.023,205.9l-.783,7.174c.783,1.725,1.55,3.286,2.146,4.518A28.083,28.083,0,0,0,368.023,205.9Z" transform="translate(-297.411 -166.396)" opacity="0.3"/>
      <path id="Path_918" data-name="Path 918" d="M382.261,216.72l.444,2.464-10.656,5.865-1.418-2.032Z" transform="translate(-298.944 -171.291)" fill="#407bff"/>
      <path id="Path_919" data-name="Path 919" d="M382.261,216.72l.444,2.464-10.656,5.865-1.418-2.032Z" transform="translate(-298.944 -171.291)" fill="#263238" opacity="0.3"/>
      <path id="Path_920" data-name="Path 920" d="M365.918,262.557l-5.1-.887,2.617,5.9s4.649-.027,4.436-2.426Z" transform="translate(-294.506 -191.627)" fill="#b55b52"/>
      <path id="Path_921" data-name="Path 921" d="M353.88,264.633l2.393,4.764,4.025-1.829-2.617-5.9Z" transform="translate(-291.366 -191.627)" fill="#b55b52"/>
      <path id="Path_922" data-name="Path 922" d="M319.067,188.279s-6.571,15.453-1.834,44.235h27.38c.334-4.2-1.6-24.7,3.143-44.5a70.222,70.222,0,0,0-9.118-1.155,100.512,100.512,0,0,0-11.636,0A52.064,52.064,0,0,0,319.067,188.279Z" transform="translate(-274.01 -157.707)" fill="#263238"/>
      <path id="Path_923" data-name="Path 923" d="M316.148,212.418a93.006,93.006,0,0,0-.608,10.432c3.724-2.426,5.049-7.989,5.574-12.02Z" transform="translate(-274.021 -168.627)" opacity="0.3"/>
      <path id="Path_924" data-name="Path 924" d="M297.012,200.018c-1.046,1.8-2.1,3.45-3.209,5.136s-2.24,3.324-3.428,4.928a87.276,87.276,0,0,1-7.831,9.408,38.33,38.33,0,0,1-4.868,4.266l-.712.493c-.307.186-.624.389-.92.548a13.3,13.3,0,0,1-1.769.756,23.093,23.093,0,0,1-3.313.832,38.069,38.069,0,0,1-6.275.5,30,30,0,0,1-3.061-.1c-1.013-.1-2.015-.148-3.067-.3v-3.833c1.845-.318,3.762-.674,5.591-1.062q1.38-.288,2.738-.63c.9-.23,1.763-.471,2.585-.75a16.2,16.2,0,0,0,2.289-.909,8.836,8.836,0,0,0,.882-.509c.137-.082.219-.17.329-.246l.471-.372a35.856,35.856,0,0,0,3.751-3.685,101.522,101.522,0,0,0,6.883-8.888c1.1-1.555,2.152-3.143,3.214-4.731s2.086-3.236,3.061-4.791Z" transform="translate(-248.243 -161.949)" fill="#b65b52"/>
      <path id="Path_925" data-name="Path 925" d="M318,194.068c.548,4.808-10.174,16.472-10.174,16.472L299.34,203.9a104.731,104.731,0,0,1,7.524-11.067C311.267,187.365,317.389,188.63,318,194.068Z" transform="translate(-266.692 -158.89)" fill="#263238"/>
      <path id="Path_926" data-name="Path 926" d="M299.806,211.89l-.816,2.366,8.668,7.119,1.719-1.78Z" transform="translate(-266.534 -169.106)" fill="#407bff"/>
      <path id="Path_927" data-name="Path 927" d="M299.806,211.89l-.816,2.366,8.668,7.119,1.719-1.78Z" transform="translate(-266.534 -169.106)" fill="#263238" opacity="0.3"/>
      <path id="Path_928" data-name="Path 928" d="M253.516,244.63l-6.106.088,2.459,5.717c.756.246,4.129-.953,5.826-2.826Z" transform="translate(-243.199 -183.918)" fill="#b55b52"/>
      <path id="Path_929" data-name="Path 929" d="M239.72,247.753l3.335,4.184,3.335-1.435-2.459-5.711Z" transform="translate(-239.72 -183.99)" fill="#b55b52"/>
      <path id="Path_930" data-name="Path 930" d="M332.536,154.343c-.06.411-.323.717-.591.685s-.438-.383-.383-.789.329-.717.6-.69S332.6,153.916,332.536,154.343Z" transform="translate(-281.265 -142.712)" fill="#263238"/>
      <path id="Path_931" data-name="Path 931" d="M331.52,155.64a15.4,15.4,0,0,1-2.47,3.286,2.349,2.349,0,0,0,1.911.581Z" transform="translate(-280.133 -143.659)" fill="#a02724"/>
      <path id="Path_932" data-name="Path 932" d="M330.7,156.165c-.914,0-1.741-1.32-1.889-3.006a3.68,3.68,0,0,1,.635-2.667,1.029,1.029,0,0,1,.767-.372h0c.915,0,1.742,1.314,1.889,3h0a3.67,3.67,0,0,1-.624,2.672,1.052,1.052,0,0,1-.767.372Zm-.493-5.772h0a.761.761,0,0,0-.548.279,3.426,3.426,0,0,0-.548,2.464c.131,1.495.871,2.738,1.643,2.738h0a.766.766,0,0,0,.548-.285,3.383,3.383,0,0,0,.548-2.459C331.687,151.653,330.948,150.394,330.2,150.394Z" transform="translate(-280.005 -141.161)" fill="#263238"/>
      <path id="Path_933" data-name="Path 933" d="M334.4,150.4a.246.246,0,0,0,.23-.378,2.5,2.5,0,0,0-1.922-1.155.241.241,0,1,0-.005.482,2.015,2.015,0,0,1,1.522.942A.258.258,0,0,0,334.4,150.4Z" transform="translate(-281.676 -140.596)" fill="#263238"/>
      <path id="Path_934" data-name="Path 934" d="M346.434,148.115c-1.04,4.989-1.391,7.951-4.315,10.246a6.62,6.62,0,0,1-10.749-4.671c-.427-4.627,1.342-12,6.571-13.46a6.7,6.7,0,0,1,8.493,7.885Z" transform="translate(-281.155 -136.555)" fill="#b55b52"/>
      <path id="Path_935" data-name="Path 935" d="M355.557,287.011a63.044,63.044,0,0,0-1.451-16.641H336.44a66.6,66.6,0,0,1,2.021,16.641Z" transform="translate(-283.477 -195.563)" fill="#407bff"/>
      <path id="Path_936" data-name="Path 936" d="M355.557,287.011a63.044,63.044,0,0,0-1.451-16.641H336.44a66.6,66.6,0,0,1,2.021,16.641Z" transform="translate(-283.477 -195.563)" fill="#fff" opacity="0.3"/>
      <path id="Path_937" data-name="Path 937" d="M337.59,149.242c-.975-.487-2.19-5.355-1.856-7.086s4.26-3.592,8.121-2.891,5.52,2.053,6.27,5.569c.772,3.647-2.042,9.72-3.433,10.191a6.155,6.155,0,0,1-5.054-.427C340.393,153.836,339.747,148.24,337.59,149.242Z" transform="translate(-283.131 -136.182)" fill="#263238"/>
      <path id="Path_938" data-name="Path 938" d="M335.111,141.481c-1.884.11-3.68-2.891-1.949-5.569a4.737,4.737,0,0,1,4.687-2.1s-.789,1.539,1.84,1.216,7.524.411,9.232,2.251c2.114,2.267.838,6.724-2.344,5.629S335.111,141.481,335.111,141.481Z" transform="translate(-281.677 -133.76)" fill="#263238"/>
      <path id="Path_939" data-name="Path 939" d="M333.9,143.517a2.776,2.776,0,0,1-2.037-1.04,4.14,4.14,0,0,1-.624-4.3.139.139,0,1,1,.257.1,3.833,3.833,0,0,0,.575,4.014,2.311,2.311,0,0,0,2.229.9.138.138,0,0,1,.066.268A1.931,1.931,0,0,1,333.9,143.517Z" transform="translate(-280.97 -135.719)" fill="#263238"/>
      <path id="Path_940" data-name="Path 940" d="M341.209,154.635a5.081,5.081,0,0,1-1.167,3.565c-1.1,1.3-2.557.515-3-1.046-.4-1.407-.307-3.773,1.166-4.5A2.112,2.112,0,0,1,341.209,154.635Z" transform="translate(-283.657 -142.205)" fill="#b55b52"/>
      <path id="Path_941" data-name="Path 941" d="M314.45,287.011h19.631a64.538,64.538,0,0,0,.7-16.641H316.761S315.748,277.4,314.45,287.011Z" transform="translate(-273.528 -195.563)" fill="#407bff"/>
      <path id="Path_942" data-name="Path 942" d="M314.45,287.011h19.631a64.538,64.538,0,0,0,.7-16.641H316.761S315.748,277.4,314.45,287.011Z" transform="translate(-273.528 -195.563)" fill="#fff" opacity="0.3"/>
    </g>
  </g>
</svg>
